<?xml version="1.0" encoding="utf-8"?>
<!-- Generator: Adobe Illustrator 24.1.2, SVG Export Plug-In . SVG Version: 6.00 Build 0)  -->
<svg version="1.1" id="Warstwa_3" xmlns="http://www.w3.org/2000/svg" xmlns:xlink="http://www.w3.org/1999/xlink" x="0px" y="0px"
	 viewBox="0 0 430 430" style="enable-background:new 0 0 430 430;" xml:space="preserve">
<style type="text/css">
	.st0{fill:#38b6ff;}
	.st1{fill:#38b6ff;}
	.st2{fill:none;stroke:#08A88A;stroke-width:12.25;stroke-miterlimit:14;}
	.st3{fill-opacity:0;}
	.st4{fill:#131432;}
	.st5{fill:none;}
</style>
<g>
	<path class="st0" d="M305.32,330.72h-50.91c-3.38,0-6.13-2.74-6.13-6.13s2.74-6.13,6.13-6.13h50.91
		c43.41,0,78.72-35.31,78.72-78.72c0-32.59-19.61-61.35-49.96-73.27c-1.53-0.6-2.75-1.79-3.39-3.3
		c-17.58-41.21-57.88-67.84-102.66-67.84c-41.77,0-79.71,23.06-99.02,60.19c-1.38,2.66-4.48,3.92-7.33,3
		c-3.06-0.99-6.23-1.5-9.42-1.5c-16.82,0-30.5,13.68-30.5,30.5c0,2.15,0.25,4.36,0.73,6.57c0.59,2.69-0.69,5.45-3.13,6.73
		c-20.6,10.85-33.4,32.01-33.4,55.23c0,34.41,28,62.41,62.41,62.41h88.62c3.38,0,6.13,2.74,6.13,6.13s-2.74,6.13-6.13,6.13h-88.62
		c-41.17,0-74.66-33.49-74.66-74.66c0-26.29,13.71-50.38,36.07-63.88c-0.17-1.56-0.26-3.11-0.26-4.65
		c0-23.57,19.18-42.75,42.75-42.75c2.76,0,5.51,0.27,8.22,0.8c22.05-38.67,62.82-62.49,107.55-62.49
		c48.85,0,92.89,28.55,112.91,72.95c15.8,6.72,29.3,17.71,39.16,31.9c10.6,15.25,16.2,33.17,16.2,51.81
		C396.29,289.91,355.48,330.72,305.32,330.72z"/>
	<path class="st0" d="M342.39,241.15c-0.55,0-1.11-0.08-1.67-0.23c-3.26-0.92-5.15-4.3-4.23-7.56c4-14.16,4.04-25.89,4.04-26
		c0-15.48-3.1-30.45-9.22-44.51c-1.35-3.1,0.07-6.71,3.17-8.06c3.1-1.35,6.71,0.07,8.06,3.17c6.8,15.61,10.24,32.23,10.24,49.39
		c0,0.52-0.01,13.45-4.5,29.35C347.52,239.39,345.06,241.15,342.39,241.15z M147.64,181.73c-2.51,0-4.86-1.55-5.76-4.05
		c-4.36-12.09-15.9-20.21-28.72-20.21c-3.38,0-6.13-2.74-6.13-6.13s2.74-6.13,6.13-6.13c17.96,0,34.13,11.37,40.24,28.3
		c1.15,3.18-0.5,6.69-3.68,7.84C149.03,181.61,148.33,181.73,147.64,181.73z"/>
	<path class="st1" d="M226.38,346.91c-3.38,0-6.13-2.74-6.13-6.13v-133c0-3.38,2.74-6.13,6.13-6.13s6.13,2.74,6.13,6.13v133
		C232.5,344.16,229.76,346.91,226.38,346.91z"/>
	<path class="st1" d="M177.81,260.28c-1.57,0-3.14-0.6-4.33-1.79c-2.39-2.39-2.39-6.27,0-8.66l49-49c1.16-1.16,2.75-1.78,4.36-1.79
		c1.63,0.01,3.2,0.67,4.34,1.83l48.13,49c2.37,2.41,2.34,6.29-0.08,8.66c-2.41,2.37-6.29,2.33-8.66-0.08l-43.79-44.59l-44.63,44.63
		C180.95,259.68,179.38,260.28,177.81,260.28z"/>
</g>
</svg>
