<?xml version="1.0" standalone="no"?>
<!DOCTYPE svg PUBLIC "-//W3C//DTD SVG 20010904//EN"
 "http://www.w3.org/TR/2001/REC-SVG-20010904/DTD/svg10.dtd">
<svg version="1.0" xmlns="http://www.w3.org/2000/svg"
 width="512.000000pt" height="512.000000pt" viewBox="0 0 512.000000 512.000000"
 preserveAspectRatio="xMidYMid meet">
<metadata>
Created by potrace 1.14, written by Peter Selinger 2001-2017
</metadata>
<g transform="translate(0.000000,512.000000) scale(0.100000,-0.100000)"
fill="#000000" stroke="none">
<path d="M4103 4497 c10 -9 14 -18 9 -21 -5 -3 -15 1 -22 9 -7 8 -17 15 -23
15 -6 0 -2 -6 8 -14 18 -13 17 -14 -8 -31 -15 -9 -24 -22 -20 -28 4 -6 1 -7
-8 -1 -8 5 -23 8 -34 6 -18 -2 -18 -1 3 10 12 6 22 16 22 22 0 6 4 6 9 -2 6
-10 10 -10 21 3 11 13 10 14 -5 9 -11 -5 -16 -4 -12 3 3 5 0 10 -8 10 -8 0
-13 -5 -12 -11 1 -6 -3 -10 -10 -9 -7 2 -17 -6 -23 -17 -8 -15 -6 -21 7 -28
13 -8 11 -10 -13 -8 -16 1 -34 5 -41 9 -6 4 -14 3 -18 -3 -3 -5 -11 -10 -16
-10 -6 0 -7 5 -3 12 4 7 3 8 -4 4 -8 -5 -8 -15 -1 -33 7 -18 6 -30 -1 -37 -8
-8 -9 -5 -4 9 7 17 5 18 -7 8 -13 -10 -16 -10 -16 2 0 8 4 12 9 9 5 -4 4 3 -4
15 -7 12 -14 17 -16 12 -2 -6 -9 -9 -15 -7 -7 1 -9 1 -4 -1 4 -3 4 -10 1 -15
-4 -7 -2 -8 4 -4 7 4 12 2 12 -3 0 -20 -29 -11 -35 10 -5 15 -10 18 -15 10 -4
-7 -13 -11 -21 -9 -10 2 -13 -5 -11 -22 1 -14 -1 -20 -5 -15 -12 16 -30 12
-48 -10 -16 -20 -16 -19 -5 3 9 18 8 22 -5 22 -9 0 -14 -4 -11 -9 9 -14 -61
-6 -81 10 -16 12 -17 12 -6 -2 7 -9 9 -19 5 -23 -4 -4 -1 -6 7 -4 9 2 16 -6
18 -17 3 -17 2 -18 -7 -5 -9 12 -10 10 -8 -10 2 -15 -2 -24 -9 -23 -6 1 -17
-5 -24 -13 -10 -13 -10 -17 1 -24 8 -5 18 -6 24 -3 5 3 6 1 2 -5 -5 -9 -13 -9
-27 -2 -21 12 -24 21 -10 35 6 6 4 20 -5 35 -11 17 -13 19 -9 5 11 -34 10 -37
-4 -43 -8 -3 -11 0 -7 7 10 16 0 13 -14 -5 -11 -12 -11 -15 1 -12 8 2 14 -5
14 -17 1 -11 7 -19 14 -17 7 1 10 -2 7 -7 -4 -5 -15 -8 -26 -6 -18 4 -21 0
-19 -22 0 -5 8 -7 17 -5 14 2 14 1 3 -7 -9 -6 -21 -5 -32 2 -17 11 -17 13 8
39 15 16 21 28 15 28 -7 0 -12 -4 -12 -10 0 -5 -8 -7 -17 -4 -15 5 -16 4 -3
-5 14 -10 7 -16 -15 -11 -5 1 -7 -2 -3 -6 10 -9 -12 -35 -23 -28 -5 3 -8 0 -7
-8 2 -7 -3 -12 -10 -10 -8 1 -11 -2 -7 -8 5 -8 11 -8 20 0 7 6 15 7 17 3 3 -4
4 -3 2 4 -4 16 29 9 34 -8 3 -11 1 -11 -7 1 -10 13 -11 13 -12 0 -1 -8 -1 -19
0 -24 1 -5 -4 -5 -11 1 -7 6 -27 9 -45 7 -27 -3 -31 -1 -27 14 5 14 4 15 -5 2
-8 -11 -7 -18 6 -27 9 -7 20 -10 26 -6 6 3 7 1 3 -5 -4 -7 -2 -12 3 -12 6 0
11 -5 11 -12 0 -9 -3 -9 -11 -1 -6 6 -18 9 -27 6 -9 -4 -13 -2 -9 4 5 7 -1 9
-14 6 -21 -6 -21 -6 2 -19 13 -7 27 -10 31 -8 3 2 10 -1 14 -8 4 -7 4 -10 -1
-6 -4 4 -14 3 -22 -3 -7 -6 -13 -8 -13 -4 0 4 -7 2 -16 -6 -14 -11 -13 -15 8
-32 20 -16 21 -17 2 -8 -23 11 -48 -2 -56 -29 -3 -10 -6 -8 -10 8 -4 14 -2 20
4 15 7 -4 8 -1 3 7 -6 9 -4 11 5 5 9 -5 11 -4 6 4 -4 6 -12 9 -17 6 -5 -4 -9
-1 -9 5 0 6 -5 8 -11 4 -6 -3 -7 -9 -3 -13 14 -10 16 -39 3 -47 -7 -4 -9 -3
-6 3 4 6 -1 19 -9 29 -9 10 -13 13 -9 6 4 -7 1 -20 -7 -29 -7 -9 -8 -14 -2
-10 7 4 14 0 18 -8 3 -9 12 -12 23 -8 10 3 3 -5 -14 -19 -18 -14 -30 -28 -26
-31 3 -4 1 -7 -5 -7 -6 0 -14 5 -17 10 -3 6 0 10 7 10 9 0 9 3 -2 10 -34 22
-41 1 -10 -30 11 -11 16 -20 12 -20 -4 0 -13 5 -20 12 -16 16 -16 -4 1 -21 10
-11 8 -11 -10 0 -15 9 -19 17 -13 24 6 8 5 18 -4 30 -10 14 -15 15 -21 5 -5
-8 -4 -11 2 -7 6 4 13 0 17 -8 6 -15 -31 -48 -46 -39 -4 3 -5 -3 -1 -12 5 -13
3 -15 -8 -9 -12 7 -12 6 -1 -7 9 -11 10 -18 2 -23 -5 -3 -10 -1 -10 6 0 7 -3
10 -6 6 -3 -3 -3 -11 1 -17 5 -8 11 -8 21 1 8 6 17 9 21 5 3 -3 1 -6 -5 -6 -6
0 -9 -6 -6 -14 3 -8 1 -17 -5 -21 -7 -4 -8 1 -4 12 6 15 4 16 -9 6 -8 -7 -14
-26 -13 -42 1 -17 -2 -28 -6 -25 -9 5 -6 45 5 62 4 7 3 12 -2 12 -6 0 -13 -7
-16 -16 -3 -8 -10 -12 -16 -9 -6 3 -13 -1 -16 -9 -3 -9 -11 -13 -17 -9 -5 3
-7 1 -3 -5 8 -13 -43 -54 -57 -45 -5 3 -7 1 -3 -5 3 -5 0 -13 -6 -15 -9 -4
-10 -6 -1 -6 6 -1 15 4 18 9 13 21 23 9 12 -15 -13 -26 -27 -33 -27 -13 0 6
-3 8 -6 5 -10 -10 17 -38 29 -30 6 3 7 1 3 -5 -5 -9 -13 -8 -29 3 -16 10 -26
11 -37 4 -13 -9 -12 -10 2 -6 9 3 22 -1 30 -10 11 -13 11 -17 0 -21 -10 -3
-10 -7 0 -20 10 -14 10 -15 -2 -4 -14 12 -39 18 -27 5 9 -8 -12 -33 -27 -33
-6 0 -2 7 8 15 14 11 16 15 5 15 -8 1 -1 8 14 16 16 9 27 18 24 21 -3 2 -16
-1 -29 -8 -12 -7 -30 -12 -38 -11 -10 2 -11 0 -4 -5 6 -4 10 -17 8 -28 -2 -11
4 -26 13 -32 20 -16 9 -17 -18 -3 -13 7 -19 7 -19 0 0 -5 6 -10 13 -10 8 0 7
-3 -3 -10 -8 -5 -15 -14 -15 -20 0 -16 -19 -12 -21 5 -1 8 2 12 8 9 7 -5 8 -2
3 6 -6 9 -4 11 5 5 9 -5 11 -4 6 3 -5 9 -13 8 -30 -3 -12 -8 -26 -12 -31 -8
-4 5 -5 3 -2 -4 4 -6 2 -13 -5 -15 -7 -3 -5 -7 6 -11 9 -4 15 -3 11 2 -3 5 -2
12 3 14 4 3 12 -6 19 -19 8 -17 8 -22 0 -17 -6 4 -23 8 -36 9 -20 2 -22 1 -11
-6 14 -9 7 -15 -14 -11 -5 1 -4 -5 4 -13 13 -17 25 -22 16 -7 -3 5 1 12 10 15
25 9 27 7 10 -10 -9 -8 -14 -19 -12 -23 3 -4 -4 -7 -14 -7 -10 0 -17 3 -15 6
2 3 -3 14 -11 25 -8 10 -14 14 -14 9 0 -6 6 -16 13 -23 10 -11 7 -12 -13 -7
-20 6 -22 5 -8 -4 17 -11 14 -40 -4 -40 -6 0 -4 8 3 17 8 10 9 14 2 10 -6 -4
-14 -3 -18 2 -9 16 -34 1 -28 -16 4 -11 2 -14 -5 -9 -8 5 -10 2 -6 -9 9 -23
30 -12 26 15 -2 14 0 20 7 15 6 -3 9 -10 6 -15 -3 -5 -1 -11 5 -15 6 -4 8 -11
4 -16 -3 -5 -10 -7 -15 -4 -5 4 -9 1 -9 -5 0 -6 -4 -8 -10 -5 -5 3 -10 2 -10
-4 0 -13 15 -22 24 -14 10 11 37 12 30 2 -3 -5 -9 -7 -14 -4 -5 3 -11 1 -15
-5 -4 -6 -11 -8 -16 -5 -5 4 -9 2 -9 -3 0 -13 -52 -12 -67 0 -9 7 -13 7 -13 0
0 -5 7 -12 15 -16 8 -3 15 -13 15 -23 0 -14 -2 -15 -9 -4 -7 11 -9 11 -14 0
-4 -10 -6 -9 -6 3 -1 9 -5 20 -11 23 -5 3 -3 -12 5 -34 12 -35 12 -40 -2 -45
-11 -5 -12 -10 -5 -19 8 -9 8 -17 0 -27 -8 -12 -9 -12 -4 2 3 10 1 20 -4 23
-6 4 -10 2 -10 -2 0 -5 -9 -14 -21 -21 -12 -8 -18 -9 -14 -3 3 6 1 11 -6 11
-10 0 -10 3 -1 12 15 15 16 28 2 28 -6 0 -9 -6 -8 -12 2 -7 -2 -12 -8 -11 -6
1 -11 -4 -11 -12 0 -8 4 -12 9 -9 4 3 8 -4 8 -15 0 -10 6 -21 13 -24 6 -3 2
-4 -9 -4 -12 1 -20 6 -18 12 3 6 -8 17 -23 23 l-28 13 25 -21 c23 -18 23 -20
5 -20 -15 -1 -12 -4 11 -14 18 -8 35 -20 39 -28 6 -10 5 -11 -6 0 -20 18 -31
14 -19 -7 9 -17 7 -19 -14 -15 -14 2 -28 -1 -32 -7 -4 -7 -3 -10 2 -7 5 3 18
-4 28 -15 16 -17 17 -19 3 -14 -9 4 -25 10 -34 13 -17 5 -17 5 0 -6 9 -6 17
-16 17 -22 0 -6 -12 -2 -27 8 -26 16 -27 16 -14 0 22 -26 49 -38 57 -24 5 7 3
8 -6 3 -9 -5 -11 -4 -6 4 11 16 26 3 19 -16 -5 -12 -3 -14 8 -8 8 5 11 4 6 -1
-11 -12 -40 -11 -50 1 -5 6 -7 4 -4 -5 2 -8 12 -13 22 -12 16 3 17 1 6 -12
-17 -20 -5 -41 15 -25 25 21 15 -7 -12 -32 l-26 -24 6 23 c5 14 3 22 -4 22 -6
0 -8 -5 -4 -12 5 -8 0 -9 -17 -5 l-24 6 25 -19 c23 -17 26 -17 42 -3 12 10 18
12 18 4 0 -6 -7 -14 -16 -18 -13 -5 -13 -7 -2 -14 9 -6 9 -9 1 -9 -6 0 -15 5
-18 10 -5 8 -12 7 -23 -2 -15 -12 -16 -11 -3 5 12 15 11 17 -8 17 -11 0 -21 5
-21 11 0 5 -4 7 -10 4 -5 -3 -10 -2 -10 4 0 5 6 12 13 14 9 4 9 6 -1 6 -7 1
-15 -5 -18 -13 -3 -8 -13 -12 -22 -10 -14 5 -14 4 1 -6 9 -6 15 -15 12 -21 -4
-5 -1 -9 5 -9 7 0 10 7 6 15 -4 13 -2 14 14 5 11 -6 20 -14 20 -17 0 -3 -3 -3
-7 0 -3 4 -12 2 -20 -4 -10 -9 -18 -7 -33 6 -11 10 -23 15 -26 12 -4 -3 -16
-2 -27 4 -15 9 -18 8 -12 -2 6 -9 3 -11 -11 -6 -19 7 -19 7 0 -8 13 -10 24
-11 36 -5 13 7 22 5 31 -7 10 -12 10 -15 2 -9 -8 4 -13 2 -13 -6 0 -10 -3 -9
-10 2 -5 8 -12 11 -15 8 -4 -4 -3 -13 1 -20 11 -16 15 -42 6 -33 -4 4 -7 12
-7 18 0 13 -45 10 -59 -3 -5 -5 -18 -5 -30 1 -18 9 -19 8 -6 -3 21 -17 19 -60
-3 -76 -9 -7 -15 -17 -13 -21 8 -12 -27 -10 -44 3 -13 10 -13 9 -1 -6 7 -10
10 -18 7 -18 -4 0 -2 -10 4 -22 11 -22 10 -22 -4 -4 -9 11 -16 25 -16 30 0 6
-5 4 -10 -4 -5 -8 -10 -19 -10 -25 0 -5 5 -3 10 5 6 9 10 10 10 3 0 -22 -23
-26 -38 -7 -13 16 -14 17 -9 2 9 -25 -2 -48 -21 -48 -12 0 -13 3 -4 12 15 15
15 28 1 28 -5 0 -8 -4 -4 -9 3 -5 0 -13 -6 -17 -9 -5 -7 -11 6 -21 17 -12 18
-13 1 -13 -9 0 -14 -5 -11 -10 4 -6 1 -18 -7 -27 -11 -15 -11 -16 7 -10 14 5
12 1 -7 -14 -16 -11 -28 -27 -28 -34 0 -8 -9 -17 -20 -20 -11 -4 -18 -10 -15
-15 3 -5 0 -12 -7 -16 -7 -4 -10 -4 -6 1 4 4 2 15 -5 23 -8 11 -8 13 0 9 7 -5
9 0 5 15 l-5 22 -9 -23 c-5 -13 -12 -19 -19 -15 -8 4 -9 3 -5 -5 4 -6 12 -9
17 -6 18 12 9 -22 -11 -40 -11 -10 -18 -20 -15 -23 3 -3 14 3 25 13 17 15 23
16 33 5 9 -10 9 -11 -1 -6 -13 8 -65 -27 -57 -38 3 -3 2 -4 -1 -1 -13 9 -63
-29 -75 -57 -11 -27 -29 -38 -29 -18 0 6 5 10 10 10 6 0 10 5 10 11 0 5 -4 8
-9 4 -5 -3 -13 0 -17 6 -5 9 0 10 14 7 12 -4 22 -3 22 1 0 4 17 20 37 34 21
15 32 27 25 27 -7 0 0 11 15 25 15 13 23 25 16 25 -7 0 -17 -8 -22 -17 -9 -16
-12 -16 -22 -3 -9 13 -10 12 -5 -2 3 -10 1 -18 -5 -18 -5 0 -9 -7 -7 -16 2
-10 -3 -19 -11 -22 -9 -3 -11 0 -6 9 5 8 4 11 -1 6 -5 -5 -9 -14 -9 -20 0 -6
-10 -14 -23 -17 -13 -3 -23 -9 -22 -14 1 -5 -4 -13 -12 -17 -10 -7 -10 -9 0
-9 6 0 12 -9 12 -21 0 -11 -5 -17 -10 -14 -6 4 -7 12 -4 18 5 9 4 9 -6 0 -7
-6 -20 -9 -29 -6 -12 4 -13 2 -3 -4 10 -8 8 -16 -9 -37 -17 -21 -24 -25 -30
-14 -7 10 -9 11 -9 0 0 -8 -5 -10 -12 -6 -10 6 -10 5 -1 -8 15 -18 7 -29 -15
-22 -14 5 -14 4 1 -6 10 -6 14 -16 10 -23 -4 -7 0 -6 10 2 9 7 14 18 10 25 -3
6 0 5 8 -2 12 -11 11 -15 -4 -23 -15 -9 -16 -13 -5 -27 11 -15 11 -15 -3 -4
-23 17 -59 24 -56 10 1 -6 -9 -15 -23 -19 -17 -5 -19 -7 -7 -8 10 -1 15 -6 12
-11 -4 -6 -1 -18 6 -26 9 -11 9 -18 1 -26 -9 -9 -16 -8 -30 6 -9 11 -11 15 -3
11 10 -6 12 -4 6 5 -5 9 -4 11 3 6 8 -5 10 -2 6 9 -6 14 -8 14 -19 -2 -10 -13
-10 -23 -2 -38 6 -11 11 -29 12 -39 2 -18 1 -18 -11 -1 -7 9 -18 14 -24 10 -9
-6 -9 -10 1 -17 11 -6 9 -8 -6 -6 -15 2 -19 -2 -17 -17 5 -27 -7 -14 -13 14
-2 14 0 19 7 15 7 -5 8 -2 3 6 -5 7 -4 11 1 7 5 -3 17 1 27 8 14 10 15 15 5
21 -19 12 -39 14 -32 3 3 -5 10 -6 16 -3 6 4 9 1 6 -6 -2 -7 -14 -15 -27 -17
-15 -2 -20 1 -15 9 4 7 3 8 -4 4 -9 -5 -9 -13 -2 -26 6 -11 6 -21 1 -24 -5 -4
-12 0 -14 6 -4 10 -6 10 -6 0 -1 -7 -5 -11 -10 -8 -5 4 -8 -2 -6 -11 3 -22
-14 -45 -28 -36 -5 3 -7 1 -3 -5 3 -5 3 -12 -1 -15 -5 -2 -2 -2 5 -1 6 2 12
-2 12 -8 0 -9 3 -9 12 0 7 7 16 12 21 12 5 0 -3 -10 -18 -21 -16 -13 -30 -18
-33 -12 -4 5 -19 9 -34 9 -15 0 -25 -2 -23 -4 7 -8 -16 -43 -24 -37 -5 3 -11
-2 -14 -10 -4 -8 -1 -12 6 -9 7 2 13 -4 14 -16 1 -11 -2 -20 -8 -20 -5 0 -9 6
-9 13 0 6 -7 -1 -15 -17 -16 -31 -20 -50 -6 -27 5 8 20 16 33 18 17 2 19 1 8
-6 -8 -5 -18 -7 -24 -4 -5 4 -7 -1 -3 -11 4 -10 3 -15 -3 -11 -5 3 -14 -4 -20
-16 -7 -11 -14 -18 -18 -15 -3 3 -16 -1 -29 -9 -13 -9 -28 -13 -33 -10 -6 3
-7 -1 -4 -10 5 -12 9 -13 21 -3 8 7 25 14 36 15 22 4 22 3 -1 -12 -13 -10 -19
-21 -15 -28 4 -8 1 -7 -9 1 -10 8 -19 9 -22 3 -3 -5 -3 -11 1 -14 5 -2 2 -2
-4 -1 -7 2 -13 -4 -13 -12 0 -9 5 -12 13 -8 7 4 9 3 4 -2 -5 -5 -13 -10 -18
-10 -5 -1 -13 -2 -19 -3 -5 0 -9 -6 -7 -13 1 -7 -5 -12 -13 -13 -9 0 -14 -8
-12 -18 2 -9 -2 -17 -8 -17 -6 0 -8 5 -5 10 3 6 0 10 -7 10 -8 1 -5 7 7 16 11
8 19 20 17 25 -1 6 3 7 10 3 9 -6 9 -3 -1 9 -7 9 -17 14 -23 11 -5 -3 -4 -12
3 -21 11 -12 10 -14 -7 -11 -11 2 -18 -2 -17 -9 2 -7 -3 -13 -10 -13 -8 0 -7
-4 3 -10 8 -5 11 -10 6 -10 -5 0 -3 -6 3 -14 9 -10 7 -17 -6 -27 -16 -13 -17
-12 -4 3 12 16 11 18 -3 18 -9 0 -16 -8 -16 -19 0 -21 -23 -45 -33 -34 -4 3
-7 1 -7 -4 0 -6 6 -13 13 -16 7 -2 8 -8 3 -13 -5 -5 -11 -4 -13 4 -3 6 -9 10
-14 6 -5 -3 -5 -13 1 -24 7 -13 7 -21 -2 -26 -7 -4 -8 -3 -4 4 4 8 0 12 -12
12 -10 0 -22 3 -26 7 -3 4 -14 8 -22 9 -14 2 -14 0 1 -16 16 -18 16 -19 -3
-31 -19 -12 -19 -14 -4 -25 16 -12 16 -13 0 -19 -10 -4 -18 -12 -18 -17 0 -6
7 -4 17 3 9 8 17 12 19 9 1 -3 6 -1 11 4 5 5 2 6 -6 1 -10 -6 -12 -4 -5 6 5 8
9 22 9 32 0 19 17 25 23 8 2 -6 -1 -11 -7 -11 -17 0 -8 -24 14 -38 20 -13 19
-13 -2 -7 -22 6 -26 -7 -10 -32 4 -6 2 -15 -4 -18 -5 -4 -8 -13 -5 -21 3 -7 0
-16 -6 -20 -7 -5 -8 -2 -3 6 6 9 4 11 -4 5 -10 -6 -11 -3 -2 14 10 17 9 20 -4
15 -8 -3 -13 -10 -10 -14 3 -5 1 -11 -5 -15 -5 -3 -8 -20 -6 -36 2 -19 -1 -33
-10 -36 -8 -3 -11 -9 -8 -15 3 -5 12 -1 19 9 13 17 14 17 12 -4 0 -12 -5 -19
-10 -16 -5 3 -6 -3 -3 -14 4 -13 2 -20 -7 -20 -9 0 -12 7 -9 19 3 13 -1 18
-17 18 -12 0 -19 -4 -16 -10 3 -5 1 -10 -4 -10 -6 0 -11 -5 -11 -11 0 -6 7 -8
17 -4 15 5 16 4 6 -6 -9 -9 -16 -10 -23 -3 -14 14 8 66 24 57 6 -4 4 1 -4 12
-14 17 -13 17 10 11 19 -6 21 -5 10 3 -10 7 -11 11 -2 11 6 0 12 5 12 10 0 6
-11 3 -24 -5 -20 -13 -29 -14 -48 -5 -22 11 -22 10 -4 -4 18 -15 15 -21 -7
-17 -5 1 -6 -3 -2 -9 6 -9 -8 -14 -28 -11 -5 1 -6 -3 -3 -8 4 -5 2 -12 -4 -16
-6 -4 -5 -13 2 -25 8 -12 15 -15 19 -9 4 7 9 5 12 -5 4 -9 1 -15 -6 -13 -6 1
-11 -9 -11 -25 1 -15 -2 -25 -6 -23 -4 2 -6 16 -5 30 3 27 -9 42 -21 24 -3 -6
0 -15 7 -20 11 -8 9 -13 -10 -29 -13 -11 -21 -23 -17 -27 3 -4 13 2 22 13 13
15 15 16 10 2 -2 -9 2 -22 10 -28 8 -7 14 -17 14 -23 0 -6 -7 -2 -15 9 -16 21
-20 12 -6 -15 7 -12 6 -18 -2 -19 -24 -2 -47 -8 -53 -15 -4 -3 3 -5 14 -2 12
2 27 -4 34 -13 12 -15 11 -16 -4 -3 -11 8 -18 9 -18 3 0 -6 -8 -9 -17 -6 -15
5 -15 4 -3 -4 8 -6 17 -9 21 -6 4 2 9 -3 12 -11 4 -9 1 -12 -9 -8 -8 3 -20 0
-28 -6 -7 -6 -17 -7 -21 -3 -5 4 -5 1 -1 -5 4 -8 2 -13 -6 -13 -8 0 -9 -3 -3
-8 6 -4 11 -12 10 -19 0 -16 -15 -29 -15 -13 0 7 -3 10 -6 7 -4 -4 -1 -13 6
-22 15 -18 -1 -20 -18 -3 -9 9 -12 9 -12 0 0 -7 4 -12 8 -12 5 0 9 -7 9 -15 0
-10 -6 -14 -16 -10 -13 4 -12 2 1 -9 20 -15 25 -31 6 -20 -7 5 -8 3 -3 -6 6
-10 3 -12 -11 -7 -15 6 -14 4 4 -11 13 -10 20 -21 16 -25 -4 -4 -12 -2 -19 3
-8 7 -12 5 -12 -5 0 -8 3 -13 5 -10 7 6 32 -15 32 -27 0 -5 -6 -6 -12 -2 -7 4
-5 -2 5 -13 14 -16 15 -22 5 -27 -7 -3 -2 -3 11 0 17 5 21 3 16 -6 -5 -8 -4
-11 3 -6 6 4 9 13 6 21 -4 8 -10 13 -14 10 -23 -14 0 29 23 44 15 10 24 21 20
26 -5 4 -2 5 6 0 12 -7 11 -10 -2 -20 -9 -7 -13 -15 -9 -19 4 -4 2 -7 -3 -6
-20 4 -38 0 -31 -7 17 -18 71 0 59 20 -2 4 12 -2 31 -14 20 -12 36 -22 36 -24
0 -1 -11 -2 -25 -2 -13 0 -22 3 -20 8 3 4 0 11 -6 15 -8 5 -9 3 -4 -6 6 -9 4
-11 -5 -5 -9 6 -11 4 -5 -6 5 -8 5 -11 0 -7 -8 7 -45 -33 -45 -49 0 -4 5 0 11
10 10 17 12 17 28 3 15 -14 18 -14 18 -1 0 8 -4 12 -8 9 -4 -2 -10 0 -14 6 -6
10 9 15 30 10 55 -12 70 8 31 43 -12 10 -15 16 -9 12 7 -3 13 -1 13 4 0 6 5
11 11 11 5 0 8 -4 4 -9 -7 -13 26 -30 44 -23 8 2 11 0 7 -6 -7 -12 20 -10 31
3 4 4 2 5 -5 1 -7 -4 -14 -1 -18 7 -2 7 -11 14 -19 14 -8 0 -11 -5 -8 -11 3
-6 2 -7 -2 -3 -5 4 -10 14 -11 23 -2 13 0 13 14 2 13 -11 15 -11 9 5 -6 15 -4
16 13 7 11 -6 20 -13 20 -16 0 -3 -5 -2 -12 2 -6 4 -8 3 -5 -4 4 -5 15 -9 25
-7 9 2 20 4 25 4 4 1 7 6 7 12 0 8 -4 8 -14 0 -10 -9 -15 -8 -19 3 -4 11 -1
13 10 9 12 -5 14 -3 8 8 -4 8 -5 11 0 7 4 -4 14 -3 21 3 15 12 34 4 33 -14 0
-9 -2 -9 -6 1 -2 6 -9 12 -14 12 -6 0 -7 -5 -3 -12 5 -7 2 -8 -7 -3 -8 5 -11
4 -6 -1 5 -5 13 -10 18 -10 5 -1 10 -2 12 -4 1 -1 10 -3 20 -5 15 -3 16 -1 6
11 -6 8 -8 14 -4 14 4 0 1 8 -6 18 -7 9 -9 14 -5 10 5 -4 14 0 21 9 12 16 40
9 30 -8 -4 -5 -2 -9 4 -9 6 0 17 12 25 28 8 15 15 23 16 17 0 -5 4 -4 9 4 12
19 38 22 51 6 9 -10 7 -13 -7 -11 -10 2 -23 -6 -30 -18 -7 -11 -12 -15 -13 -8
0 6 -4 12 -10 12 -17 0 -11 -14 11 -28 12 -8 18 -9 14 -3 -9 15 8 14 25 -1 12
-11 12 -10 3 2 -15 19 -4 38 20 34 10 -1 14 2 10 9 -4 6 0 8 10 4 11 -4 14 -2
10 9 -4 10 -9 11 -17 5 -8 -7 -16 -4 -25 11 -7 11 -8 17 -3 14 6 -3 13 0 15 6
4 10 6 10 6 1 1 -7 6 -13 11 -13 7 0 7 7 -1 21 -8 16 -8 20 1 14 7 -4 23 -2
36 5 18 10 21 16 13 27 -9 9 -7 14 5 19 11 4 15 13 10 27 -5 15 -3 19 9 14 11
-4 14 -2 10 9 -3 7 0 14 7 14 6 0 8 -5 5 -10 -3 -6 1 -10 9 -10 9 0 16 -4 16
-9 0 -5 -11 -8 -24 -7 -17 2 -23 -1 -19 -10 6 -17 23 -18 23 -1 0 8 3 7 10 -3
7 -11 5 -17 -8 -22 -9 -4 -11 -7 -4 -7 7 -1 26 6 41 14 24 12 31 12 40 1 6 -7
7 -17 3 -21 -4 -5 -1 -5 6 -1 22 13 -16 48 -39 36 -23 -13 -29 -13 -29 2 0 6
3 8 6 5 4 -3 14 -2 24 3 12 6 24 4 39 -6 12 -9 23 -14 25 -13 29 41 47 71 38
65 -7 -4 -12 -2 -12 4 0 6 -5 8 -10 5 -17 -11 -11 4 11 26 27 27 56 32 69 11
9 -15 10 -15 8 2 -2 10 3 21 11 24 8 3 11 0 7 -7 -5 -7 -1 -9 9 -5 20 8 12 16
-20 19 -14 2 -23 -1 -20 -6 4 -5 -1 -6 -9 -3 -23 9 -20 24 4 19 23 -4 24 -2 9
28 -9 20 -9 20 4 5 12 -15 15 -16 29 -2 21 22 51 24 66 5 12 -14 12 -14 4 4
-8 14 -6 22 6 32 16 12 16 13 -1 7 -13 -5 -16 -2 -11 10 3 9 11 13 17 9 5 -3
7 -1 3 5 -6 10 30 28 47 24 5 -1 6 2 2 7 -3 6 -13 7 -22 4 -12 -5 -14 -3 -8 7
5 9 4 11 -4 6 -6 -4 -9 -12 -6 -17 3 -5 -2 -6 -11 -2 -12 4 -15 3 -10 -5 4 -7
3 -12 -3 -12 -5 0 -9 9 -8 19 0 11 5 17 10 14 4 -2 13 -1 20 4 18 14 59 14 51
1 -4 -7 -2 -8 5 -4 6 4 8 12 5 18 -4 6 1 17 10 23 15 11 15 13 1 19 -11 4 -14
2 -9 -6 5 -7 3 -8 -6 -3 -9 6 -11 4 -5 -5 6 -9 4 -11 -5 -5 -8 5 -11 4 -6 -3
3 -6 1 -14 -6 -18 -7 -4 -10 -4 -6 1 4 4 3 17 -3 28 -8 14 -8 18 0 13 17 -11
36 5 20 16 -11 6 -9 8 6 6 15 -2 19 2 18 17 -1 11 0 14 3 7 3 -6 11 -9 17 -5
9 5 9 3 0 -8 -9 -11 -8 -18 2 -32 11 -16 13 -16 19 -2 3 9 2 13 -3 10 -5 -3
-12 -1 -16 5 -3 5 -1 10 4 10 6 0 11 7 11 15 0 8 -6 15 -12 15 -9 0 -8 4 2 10
8 5 20 10 25 10 6 0 3 -5 -5 -10 -11 -7 -11 -10 -2 -10 7 0 11 -4 7 -9 -3 -5
-1 -12 4 -16 6 -3 8 4 6 15 -3 14 3 24 18 31 22 9 22 9 1 6 -12 -3 -27 -1 -33
3 -7 4 3 7 21 8 18 0 34 6 36 11 3 8 10 8 25 0 20 -9 20 -9 5 4 -18 14 -25 33
-9 23 13 -8 33 19 29 40 -2 9 3 19 10 21 6 3 12 0 12 -7 0 -6 -5 -8 -12 -4 -8
5 -8 1 2 -12 22 -29 24 -30 17 -13 -3 9 1 26 9 38 8 11 12 21 7 21 -4 0 0 5
10 11 9 5 21 8 26 4 5 -3 12 -1 15 4 4 5 2 12 -4 16 -6 4 -7 11 -4 17 4 7 2 8
-5 4 -6 -4 -8 -12 -5 -18 4 -7 2 -8 -4 -4 -7 4 -12 4 -12 -1 0 -8 -61 -53 -73
-53 -4 0 -7 4 -7 10 0 5 3 9 8 9 26 -4 31 2 22 26 -6 15 -6 26 1 30 5 4 9 3 8
-2 -1 -4 -1 -17 0 -27 1 -18 2 -18 21 -1 10 9 18 22 17 29 -1 6 4 10 11 9 6
-2 12 3 12 11 0 7 7 20 17 27 15 13 15 12 5 -8 -15 -27 -15 -33 -2 -33 6 0 10
7 10 15 0 9 6 12 15 9 8 -4 15 -1 15 5 0 7 10 16 23 21 21 8 21 9 -5 7 -15 -1
-25 -4 -22 -8 2 -4 0 -10 -6 -14 -5 -3 -10 3 -10 14 0 10 -3 28 -7 38 -7 17
-6 17 11 0 18 -17 19 -17 33 0 10 13 16 15 19 6 3 -7 10 -13 16 -13 7 0 7 5
-1 13 -6 8 -7 18 -3 22 4 5 -5 1 -20 -8 -15 -9 -31 -17 -35 -17 -4 0 7 10 24
21 18 12 30 26 26 32 -3 5 -1 7 4 4 6 -4 16 0 23 9 12 13 10 14 -14 10 -15 -3
-24 -1 -21 5 4 5 10 7 15 4 5 -3 15 1 23 9 15 16 33 16 56 2 10 -6 12 -5 7 2
-4 7 -1 12 7 12 8 0 18 7 21 16 5 14 9 14 24 3 15 -13 16 -12 3 3 -7 10 -16
16 -20 14 -3 -2 -12 7 -18 21 -10 20 -9 22 1 14 7 -6 17 -7 21 -3 5 4 5 1 0
-7 -5 -9 -4 -12 3 -7 7 4 12 1 12 -6 0 -9 3 -9 10 2 5 8 10 20 10 25 0 6 -4 5
-8 -2 -5 -8 -12 -8 -26 3 -20 14 -12 19 21 15 8 -1 10 5 7 14 -3 8 -11 12 -18
8 -6 -3 -3 3 7 14 9 11 14 23 10 26 -3 4 -1 7 6 7 7 0 11 -7 8 -15 -4 -8 -2
-17 3 -20 9 -6 14 8 11 28 0 4 4 7 11 7 6 0 8 3 5 7 -9 8 31 36 42 29 5 -3 12
1 15 10 5 13 9 14 22 3 12 -10 15 -10 12 2 -2 8 3 13 10 11 6 -1 12 2 12 8 0
13 -13 13 -26 0 -6 -6 -14 -2 -23 13 -10 16 -10 19 -1 10 11 -10 18 -7 37 14
19 20 22 28 12 34 -7 4 -16 6 -20 3 -4 -2 -10 0 -14 5 -3 6 5 8 20 5 20 -3 23
-1 19 13 -5 17 -5 17 6 0 6 -10 16 -14 23 -10 7 4 6 -1 -2 -10 -8 -10 -15 -27
-16 -40 -2 -17 2 -22 20 -22 13 0 21 3 18 8 -2 4 -11 7 -19 7 -8 0 -14 3 -14
8 1 14 31 47 43 47 14 0 16 44 2 46 -5 0 -11 -5 -14 -12 -2 -8 1 -9 10 -3 12
6 12 5 1 -8 -8 -9 -20 -14 -27 -12 -11 5 -8 12 10 32 13 14 22 29 19 34 -3 4
0 8 6 8 7 0 10 -7 7 -15 -4 -8 -2 -17 3 -20 6 -4 11 -1 11 4 1 6 2 16 3 23 0
6 8 13 16 15 9 3 11 1 5 -4 -14 -10 -13 -43 0 -43 6 0 10 15 10 33 0 23 -5 31
-15 29 -12 -3 -13 -1 -3 9 11 10 16 9 28 -7 13 -18 14 -18 9 9 -2 15 0 27 5
27 6 0 8 8 4 18 -3 9 -3 14 1 11 11 -10 16 -50 6 -44 -6 3 -7 -1 -4 -9 8 -21
23 -20 20 1 -2 9 5 24 15 34 19 19 15 54 -5 42 -6 -3 -7 -2 -3 3 5 5 12 9 16
9 12 0 41 32 35 38 -3 3 2 4 11 3 9 -1 21 -9 26 -17 5 -9 9 -10 9 -2 0 6 -5
15 -11 18 -6 5 -4 12 8 20 10 7 22 11 27 8 5 -4 6 0 1 7 -6 9 -1 10 16 5 17
-4 20 -3 10 3 -11 8 -11 11 0 16 8 3 3 3 -11 -1 -21 -5 -23 -4 -13 8 7 9 8 20
4 28 -11 18 -22 0 -16 -28 2 -14 0 -19 -7 -15 -7 4 -8 3 -4 -4 7 -12 -32 -38
-42 -28 -3 3 0 6 7 6 7 0 9 4 6 10 -4 6 1 7 12 3 16 -6 16 -5 4 11 -8 9 -10
16 -5 15 19 -3 28 2 16 10 -10 6 -8 13 11 31 20 19 22 27 13 46 -6 13 -19 27
-28 30 -10 3 -18 10 -18 15 0 6 -4 8 -9 4 -5 -3 -12 -1 -15 4 -9 14 16 7 46
-13 15 -10 33 -14 39 -10 8 5 9 3 4 -6 -6 -9 -4 -11 5 -5 8 5 11 4 6 -3 -3 -6
-2 -13 4 -17 5 -3 10 -12 10 -18 0 -7 -9 -1 -20 13 -11 14 -20 20 -20 14 0 -6
3 -14 7 -18 12 -12 12 -36 0 -30 -7 3 -4 -1 5 -9 10 -8 14 -18 10 -23 -4 -4 1
-2 11 5 19 15 24 26 6 15 -7 -4 -10 -1 -7 7 3 8 10 14 16 14 5 0 14 4 19 9 4
5 3 7 -2 3 -6 -3 -16 3 -23 13 -9 15 -7 21 14 35 13 9 22 20 19 25 -4 6 -1 10
4 10 6 0 11 -6 11 -12 0 -9 4 -8 10 2 8 12 10 12 10 1 0 -8 3 -12 6 -8 4 3 13
0 21 -8 8 -8 20 -15 26 -14 8 0 8 2 -1 6 -6 2 -9 10 -6 15 5 7 2 8 -6 3 -8 -5
-11 -4 -7 2 3 5 0 10 -8 11 -8 1 -22 3 -30 4 -8 1 -15 6 -15 11 0 5 -6 4 -14
-2 -10 -8 -16 -9 -21 -1 -3 5 1 10 10 10 10 0 13 5 9 13 -5 7 -1 7 10 -2 15
-13 19 -13 28 0 8 11 9 10 4 -4 -4 -12 -2 -17 6 -14 7 2 12 10 10 16 -1 8 4 8
18 -1 14 -9 16 -14 7 -20 -7 -4 -10 -8 -7 -9 3 0 13 -2 23 -4 12 -2 17 1 13
10 -3 9 0 12 10 8 8 -3 12 -8 9 -11 -2 -3 4 -12 15 -19 11 -8 17 -20 14 -26
-4 -7 -3 -8 1 -4 5 4 10 15 11 23 1 9 12 23 23 31 12 8 19 19 16 24 -4 5 0 9
7 9 10 0 9 3 -2 9 -19 13 -34 3 -21 -13 11 -13 5 -26 -10 -26 -5 0 -6 8 -2 18
5 14 3 14 -10 -3 -8 -10 -12 -26 -9 -35 4 -12 2 -13 -8 -3 -11 10 -11 15 -1
27 7 8 9 21 5 27 -4 7 -3 9 3 6 13 -8 37 18 29 32 -3 5 2 8 11 6 25 -4 38 6
22 17 -10 6 -6 7 11 3 24 -6 24 -5 6 9 -11 9 -14 16 -8 16 7 0 15 0 20 0 6 0
7 -8 3 -41 0 -5 -5 -8 -10 -4 -5 3 -12 1 -16 -5 -4 -6 -11 -8 -16 -5 -5 4 -9
4 -9 1 0 -3 9 -10 20 -16 16 -9 19 -8 13 6 -4 11 -3 15 5 10 6 -3 14 -1 17 4
5 8 14 5 28 -7 22 -18 22 -18 5 2 -21 26 -27 77 -10 83 9 3 11 -4 8 -20 -2
-14 0 -31 6 -39 8 -11 9 -10 4 5 -4 13 -2 17 7 13 8 -3 14 1 14 8 0 7 -6 11
-14 8 -9 -4 -11 0 -7 11 3 9 10 14 14 11 11 -7 6 22 -5 32 -4 4 -5 2 -1 -4 4
-7 3 -13 -3 -13 -5 0 -9 9 -8 19 1 11 6 17 12 13 5 -4 15 -7 20 -7 6 0 9 -8 7
-18 -2 -9 2 -17 7 -17 15 0 21 14 11 30 -10 16 -2 42 11 34 8 -5 13 9 10 29 0
4 3 7 9 7 5 0 10 -5 10 -11 0 -5 4 -8 10 -4 5 3 6 13 3 23 -6 16 -6 16 11 0 9
-10 22 -18 27 -18 5 0 4 -6 -3 -14 -15 -16 -32 -10 -21 7 5 8 2 8 -9 0 -8 -7
-18 -10 -21 -6 -4 3 -7 1 -7 -4 0 -6 5 -13 12 -15 9 -3 9 -6 0 -12 -7 -4 -12
-3 -12 3 0 6 -7 8 -15 5 -8 -4 -12 -10 -9 -15 3 -5 9 -7 14 -4 5 3 8 -4 7 -15
-1 -11 -5 -20 -9 -20 -4 0 1 -9 13 -21 17 -17 23 -18 32 -9 9 10 9 11 0 6 -9
-5 -11 -2 -6 10 5 14 3 16 -13 11 -19 -7 -19 -7 0 8 11 8 14 15 8 15 -7 0 -12
5 -12 11 0 8 5 7 16 -1 12 -11 15 -11 12 1 -2 9 5 14 17 13 30 -1 31 52 1 60
l-21 6 23 15 c12 9 19 21 16 27 -4 7 -2 8 4 4 12 -7 16 5 13 32 -1 6 5 13 14
13 8 1 21 2 28 3 6 1 17 0 22 -3 6 -3 3 2 -8 11 -10 9 -23 16 -30 14 -7 -1 -9
-1 -4 1 4 3 5 9 2 14 -4 5 2 6 12 2 10 -3 15 -3 11 2 -10 10 19 38 32 30 5 -3
10 -2 10 4 0 5 -4 11 -9 13 -5 2 -3 8 4 15 10 9 13 6 13 -14 0 -26 19 -46 35
-36 4 3 0 11 -9 17 -9 7 -14 18 -10 24 4 6 2 22 -4 34 -10 21 -10 22 3 5 14
-17 16 -17 31 5 13 18 16 19 16 5 0 -9 4 -17 9 -17 14 0 7 30 -10 41 -8 5 -9
9 -3 9 5 0 20 -9 31 -19 12 -11 23 -18 26 -15 2 2 10 -2 17 -11 8 -10 9 -15 2
-15 -6 0 -9 -6 -6 -13 3 -8 -3 -20 -13 -27 -15 -12 -16 -12 -5 0 20 23 14 35
-8 15 -11 -10 -17 -22 -13 -28 3 -6 1 -7 -5 -3 -16 10 -54 -12 -46 -26 5 -7 2
-8 -6 -3 -10 6 -12 4 -6 -11 4 -10 4 -15 0 -11 -4 4 -14 1 -22 -6 -13 -10 -14
-9 -7 2 5 9 4 12 -3 7 -6 -4 -8 -14 -5 -23 4 -11 8 -13 11 -5 2 7 8 12 13 12
17 0 9 -15 -19 -35 -21 -15 -24 -15 -13 -2 8 10 9 17 3 17 -6 0 -14 -5 -17
-10 -4 -6 -11 -8 -16 -5 -5 4 -9 -2 -9 -13 0 -10 -9 -27 -20 -37 -25 -23 -26
-52 -1 -60 12 -4 18 -12 14 -21 -3 -10 0 -12 10 -9 8 4 17 -1 20 -9 4 -10 13
-13 24 -10 15 5 15 4 3 -4 -8 -6 -18 -8 -22 -6 -4 3 -8 1 -8 -5 0 -5 -9 -8
-20 -6 -14 3 -18 0 -13 -8 4 -8 2 -8 -9 1 -11 9 -18 10 -23 2 -3 -5 1 -10 9
-10 9 0 15 -3 15 -7 -5 -28 2 -36 15 -17 15 20 46 25 59 9 5 -6 7 -4 4 5 -2 8
-13 14 -23 12 -16 -2 -16 -1 -4 7 8 6 22 8 32 5 9 -2 19 0 23 5 3 7 0 8 -9 5
-28 -11 -17 5 21 31 21 14 34 25 29 25 -5 0 -3 7 4 15 10 12 16 13 27 4 7 -7
16 -9 20 -5 3 3 0 6 -7 6 -9 0 -7 5 6 16 19 15 19 15 -1 6 -11 -5 -28 -8 -38
-7 -9 2 -15 -1 -12 -6 4 -5 -1 -6 -10 -2 -13 4 -14 8 -4 14 7 4 17 5 22 2 5
-3 6 5 2 18 -7 23 -7 23 8 4 15 -19 16 -19 36 -1 20 18 27 13 22 -17 -1 -5 3
-6 9 -2 7 4 7 12 0 25 -7 13 -6 20 2 22 7 3 5 7 -6 11 -11 5 -15 3 -10 -5 5
-7 3 -8 -6 -3 -9 5 -11 4 -6 -3 5 -8 1 -10 -9 -6 -14 6 -13 9 5 21 15 10 19
21 15 36 -4 13 -3 17 2 10 6 -8 16 -5 35 12 15 13 24 26 20 31 -4 4 -2 4 5 0
6 -3 14 -2 18 4 3 5 0 10 -7 10 -10 0 -10 2 1 9 8 5 16 20 18 32 4 29 13 38
13 14 0 -14 4 -13 21 9 11 14 18 30 14 35 -3 5 0 13 6 17 7 4 9 3 6 -3 -4 -6
5 -23 19 -38 20 -22 25 -24 22 -9 -2 15 3 19 22 18 24 -2 24 -1 -10 28 -19 17
-30 28 -23 24 6 -3 14 -2 18 4 4 6 11 8 16 5 5 -4 9 -2 9 4 0 5 -3 11 -7 14
-5 2 -2 2 6 0 8 -2 11 2 7 12 -4 10 2 19 17 24 27 10 63 -2 59 -21 -2 -7 0 -9
4 -5 15 14 13 42 -3 60 -16 17 -16 17 0 11 18 -7 24 11 7 19 -6 3 -5 4 2 3 7
-2 12 -11 12 -20 -1 -9 3 -16 8 -16 6 0 7 11 4 25 -4 14 -3 25 1 24 19 -3 47
3 35 8 -6 2 -10 10 -6 16 3 7 -2 3 -10 -7 -12 -15 -16 -16 -16 -5 0 8 -3 10
-8 4 -4 -5 -16 -11 -27 -13 -17 -2 -16 0 5 12 14 8 29 12 33 9 5 -3 6 4 2 16
-4 13 -2 21 5 21 6 0 8 -4 5 -10 -3 -6 4 -10 17 -10 13 0 29 -5 34 -10 7 -7
10 0 9 22 0 18 -5 32 -11 31 -13 -2 -16 35 -3 42 5 4 6 -2 2 -11 -4 -12 -3
-15 5 -10 8 4 16 -2 21 -16 7 -17 10 -19 10 -5 1 9 6 17 11 17 6 0 10 5 10 11
0 8 -4 9 -13 0 -11 -8 -16 -5 -25 14 -8 18 -8 24 0 22 6 -1 13 4 16 12 2 8 0
11 -6 7 -6 -3 -9 1 -8 11 3 20 22 28 31 14 3 -6 11 -11 18 -11 8 0 8 3 0 11
-6 6 -9 18 -6 25 4 10 0 12 -13 8 -15 -5 -16 -4 -4 4 18 13 31 6 28 -15 -2 -9
2 -18 8 -20 14 -5 15 28 1 45 -5 7 -7 15 -3 19 3 3 6 2 6 -3 0 -5 9 -10 19
-11 13 -1 18 3 14 13 -3 7 -8 12 -12 10 -4 -3 -12 -1 -19 3 -8 4 -5 11 9 20
16 9 19 9 14 0 -6 -8 -4 -10 5 -4 8 5 11 4 7 -2 -4 -6 1 -17 11 -24 15 -13 16
-12 4 3 -9 11 -10 18 -2 23 5 3 10 12 9 18 0 9 -2 8 -6 -1 -2 -6 -9 -10 -14
-6 -5 3 -6 11 -2 17 11 18 14 47 5 47 -16 0 -22 -13 -11 -26 7 -8 7 -14 -1
-19 -9 -6 -14 10 -13 43 1 8 -5 11 -14 8 -8 -3 -11 -1 -8 4 4 6 14 9 23 8 11
-2 17 4 18 19 1 12 -3 20 -7 17 -5 -3 -12 2 -15 10 -3 9 -9 14 -13 11 -4 -2
-8 2 -8 10 0 13 3 13 17 0 14 -13 19 -13 36 -1 10 8 16 18 11 22 -4 4 -7 2 -7
-4 0 -7 -4 -12 -8 -12 -13 0 -10 30 2 30 6 1 -5 10 -24 21 -19 11 -26 17 -15
14 17 -4 21 0 20 17 0 13 -4 30 -9 38 -9 13 -8 13 9 0 17 -14 18 -13 13 2 -8
20 19 18 34 -3 8 -11 9 -10 4 4 -3 9 -9 24 -13 34 -4 9 -2 14 3 10 6 -3 16 -2
24 4 13 7 13 9 1 9 -11 0 -9 5 5 22 14 16 14 19 2 10 -14 -11 -18 -10 -26 4
-6 11 -11 13 -16 5 -4 -6 -13 -11 -19 -11 -7 0 -6 4 3 10 17 11 20 39 5 60 -9
13 -8 13 8 1 10 -8 17 -9 17 -3 0 6 -5 14 -10 17 -7 4 -7 12 -2 18 10 15 10
27 -3 47 -8 13 -7 13 10 0 17 -14 18 -13 12 3 -4 10 -7 21 -7 23 0 3 -4 3 -8
0 -5 -3 -9 1 -9 9 0 11 4 12 14 3 7 -6 17 -7 21 -3 4 4 1 10 -5 12 -7 3 -13 9
-13 15 0 7 5 7 13 -1 8 -6 17 -7 22 -3 4 4 2 -4 -6 -18 -7 -14 -14 -29 -15
-35 0 -5 -2 -12 -3 -15 -8 -16 -8 -39 -1 -35 9 6 5 -28 -5 -45 -3 -6 -1 -10 4
-10 10 0 16 21 12 43 0 4 4 7 11 7 6 0 4 6 -7 13 -12 10 -14 16 -7 21 7 4 12
3 12 -1 0 -5 10 -14 23 -22 20 -13 21 -13 9 1 -7 9 -9 18 -5 20 4 3 2 3 -4 2
-7 -2 -17 5 -22 15 -8 14 -5 23 10 39 10 12 18 25 17 29 -4 16 23 53 34 47 7
-4 8 -3 4 5 -4 6 -11 9 -15 7 -4 -3 -13 4 -19 15 -12 19 -12 19 17 4 19 -9 32
-11 36 -5 4 6 3 10 -2 9 -18 -3 -33 2 -33 11 0 5 6 8 13 6 6 -1 9 -1 4 1 -4 3
-4 10 -1 16 5 8 2 8 -7 0 -17 -17 -37 -17 -21 -1 19 19 14 32 -5 17 -16 -12
-17 -12 -6 2 10 12 10 18 0 29 -8 9 -3 8 14 -2 25 -16 26 -16 24 10 -2 28 -5
29 -40 16 -19 -6 -19 -6 -2 7 23 18 13 52 -13 44 -9 -3 -23 1 -30 10 -9 11
-17 12 -34 4 -20 -10 -20 -10 -2 5 17 14 22 14 35 2 14 -13 19 -13 35 0 11 8
15 14 9 14 -7 0 -15 -5 -18 -10 -11 -18 -24 -1 -20 28 2 15 2 21 -1 14 -7 -14
-63 -46 -71 -39 -2 3 5 8 16 12 14 4 19 14 19 38 -1 18 -3 26 -5 20 -3 -7 -9
-13 -14 -13 -6 0 -7 5 -4 10 4 6 3 9 -2 8 -4 -1 -19 3 -33 10 -22 12 -23 12
-7 -1z m57 -50 c0 -4 -4 -5 -10 -2 -5 3 -10 0 -10 -7 0 -10 -2 -10 -9 1 -12
18 -44 24 -38 7 3 -6 -4 -13 -14 -13 -18 -2 -18 -1 -2 15 9 9 20 17 24 17 4 0
10 3 14 7 8 8 45 -13 45 -25z m-213 -59 c-5 -3 -16 -4 -24 -1 -10 4 -11 9 -2
19 8 10 14 11 24 1 8 -8 9 -14 2 -19z m95 18 c7 4 8 2 4 -5 -9 -13 -26 -5 -25
12 0 9 2 8 6 -1 2 -6 10 -9 15 -6z m-57 -6 c3 -5 1 -10 -4 -10 -6 0 -11 5 -11
10 0 6 2 10 4 10 3 0 8 -4 11 -10z m-168 -27 c0 -8 -6 -9 -19 -2 -10 5 -18 11
-18 12 0 2 8 3 18 3 10 0 19 -6 19 -13z m386 3 c9 -7 17 -17 17 -21 0 -5 -8
-1 -18 8 -10 10 -22 14 -25 10 -4 -3 -7 -1 -7 5 0 15 11 15 33 -2z m47 -17 c0
-5 -4 -9 -8 -9 -5 0 -9 7 -9 15 0 8 4 12 9 9 4 -3 8 -9 8 -15z m-554 -22 c2
-1 -7 -9 -19 -16 -12 -8 -19 -10 -15 -6 4 5 3 14 -3 21 -8 10 -6 12 11 9 13
-2 24 -6 26 -8z m581 -12 c0 -8 -4 -12 -9 -9 -5 3 -6 10 -3 15 9 13 12 11 12
-6z m-626 -48 c-10 -9 -11 -8 -5 6 3 10 9 15 12 12 3 -3 0 -11 -7 -18z m599
-78 c0 -5 -8 -9 -17 -8 -11 0 -13 3 -5 6 6 2 9 10 6 15 -4 7 -2 8 4 4 7 -4 12
-11 12 -17z m-10 -35 c-6 -6 -7 -14 -3 -18 4 -4 0 -4 -8 -1 -21 8 -20 31 2 31
12 0 15 -4 9 -12z m-750 -44 c0 -5 -2 -10 -4 -10 -3 0 -8 5 -11 10 -3 6 -1 10
4 10 6 0 11 -4 11 -10z m680 -60 c0 -5 -5 -10 -11 -10 -5 0 -7 5 -4 10 3 6 8
10 11 10 2 0 4 -4 4 -10z m-780 -74 c0 -3 -4 -8 -10 -11 -5 -3 -10 -1 -10 4 0
6 5 11 10 11 6 0 10 -2 10 -4z m806 -79 c1 -7 -7 -13 -16 -13 -15 0 -16 4 -8
19 10 19 20 16 24 -6z m-950 -39 c13 -16 14 -19 2 -10 -11 9 -18 10 -23 2 -3
-5 -14 -10 -23 -9 -11 0 -12 2 -4 6 6 2 10 9 7 14 -4 5 2 6 11 2 12 -4 15 -3
10 5 -12 20 0 13 20 -10z m-25 -61 c-10 -9 -11 -8 -5 6 3 10 9 15 12 12 3 -3
0 -11 -7 -18z m-87 -34 c-11 -8 -20 -18 -20 -23 -1 -6 -2 -18 -4 -27 -1 -11
-4 -13 -6 -6 -3 7 -13 9 -22 6 -10 -4 -6 4 11 22 15 17 27 32 27 36 0 3 7 6
16 6 14 0 14 -2 -2 -14z m10 -29 c3 -8 2 -12 -4 -9 -6 3 -10 10 -10 16 0 14 7
11 14 -7z m1003 1 c0 -8 -4 -15 -9 -15 -10 0 -11 14 -1 23 9 10 10 9 10 -8z
m-1047 -46 c12 -8 10 -9 -8 -4 -21 6 -23 5 -13 -13 8 -15 8 -23 -1 -28 -7 -4
-8 -3 -4 4 4 7 3 12 -3 12 -7 0 -8 16 -2 38 2 5 17 1 31 -9z m1036 -29 c5 1 9
-3 11 -10 1 -6 -1 -6 -4 0 -3 6 -11 7 -23 0 -15 -8 -17 -6 -13 11 4 14 8 17
13 9 4 -6 11 -11 16 -10z m-116 -63 c0 -2 -10 -12 -22 -23 l-23 -19 19 23 c18
21 26 27 26 19z m101 -40 c-10 -9 -11 -8 -5 6 3 10 9 15 12 12 3 -3 0 -11 -7
-18z m-1118 -2 c-3 -9 -8 -14 -10 -11 -3 3 -2 9 2 15 9 16 15 13 8 -4z m1040
0 c-3 -9 -8 -14 -10 -11 -3 3 -2 9 2 15 9 16 15 13 8 -4z m-28 -25 c3 -6 -1
-7 -9 -4 -18 7 -21 14 -7 14 6 0 13 -4 16 -10z m-101 -19 c3 -5 -1 -11 -9 -14
-9 -4 -12 -1 -8 9 6 16 10 17 17 5z m35 -7 c-6 -8 -6 -14 0 -18 5 -3 12 0 15
6 3 7 3 3 1 -9 -3 -12 -1 -24 5 -28 6 -3 10 4 11 17 0 13 3 17 6 10 3 -7 2
-20 -1 -28 -5 -14 -9 -14 -22 -3 -14 11 -15 10 -12 -7 2 -11 -2 -18 -9 -16 -7
1 -13 -3 -13 -9 0 -5 -5 -7 -12 -3 -8 5 -9 2 -5 -10 4 -9 3 -15 -1 -12 -5 3
-16 -11 -25 -30 -9 -19 -25 -37 -34 -41 -10 -3 -27 -16 -38 -29 l-20 -23 -30
20 c-17 12 -22 18 -12 15 12 -4 17 -2 15 6 -6 18 -29 17 -53 -1 -20 -16 -20
-16 -2 6 19 21 32 24 54 10 15 -10 53 9 53 26 0 8 -4 6 -10 -3 -9 -13 -11 -13
-21 0 -9 12 -10 11 -4 -5 5 -15 3 -17 -5 -8 -9 8 -9 16 -1 30 6 10 11 12 11 6
0 -7 5 -13 11 -13 6 0 9 7 6 15 -7 17 9 30 18 16 3 -6 13 -8 23 -5 14 5 14 4
2 -4 -8 -6 -18 -8 -23 -5 -5 3 -6 -4 -3 -15 4 -11 2 -23 -4 -27 -21 -13 -9
-23 14 -12 17 8 22 15 15 23 -11 14 5 29 20 20 5 -3 7 11 4 32 -2 20 -4 44 -3
52 0 8 0 24 1 35 0 18 1 18 10 3 6 -10 16 -14 31 -10 17 4 20 2 15 -11 -3 -9
-2 -19 2 -22 12 -7 23 24 14 38 -13 20 -11 34 3 34 10 0 11 -4 3 -13z m56 6
c3 -5 1 -10 -4 -10 -6 0 -11 5 -11 10 0 6 2 10 4 10 3 0 8 -4 11 -10z m69 -2
c-3 -4 -9 -8 -15 -8 -5 0 -9 4 -9 8 0 5 7 9 15 9 8 0 12 -4 9 -9z m-24 -44 c0
-2 -7 -4 -15 -4 -8 0 -15 4 -15 10 0 5 7 7 15 4 8 -4 15 -8 15 -10z m-54 -32
c-17 -16 -18 -16 -5 5 7 12 15 20 18 17 3 -2 -3 -12 -13 -22z m44 -2 c0 -5 -4
-10 -10 -10 -5 0 -10 5 -10 10 0 6 5 10 10 10 6 0 10 -4 10 -10z m-180 -21 c0
-4 -10 -6 -21 -4 -32 6 -34 13 -4 13 14 0 25 -4 25 -9z m106 -4 c-1 -8 -6 -18
-11 -22 -4 -5 -5 -2 0 6 6 11 4 13 -11 8 -18 -7 -18 -7 0 8 24 18 25 18 22 0z
m-1106 -9 c0 -2 -9 -6 -20 -9 -11 -3 -18 -1 -14 4 5 9 34 13 34 5z m906 -25
c-4 -6 -13 -11 -19 -11 -8 0 -7 3 2 9 8 5 10 14 6 22 -6 11 -5 11 5 2 7 -6 9
-16 6 -22z m241 -6 c0 -19 -3 -35 -7 -35 -6 0 -6 24 -1 63 3 20 8 3 8 -28z
m-61 -8 c1 -9 -2 -15 -7 -11 -5 3 -7 10 -4 15 10 15 -7 10 -28 -8 -19 -18 -19
-17 -6 5 16 26 41 26 45 -1z m-16 -27 c0 -5 -4 -10 -10 -10 -5 0 -10 5 -10 10
0 6 5 10 10 10 6 0 10 -4 10 -10z m107 -15 c0 -8 -4 -12 -9 -9 -4 3 -8 9 -8
15 0 5 4 9 8 9 5 0 9 -7 9 -15z m-82 -4 c3 -5 2 -12 -3 -15 -5 -3 -9 1 -9 9 0
17 3 19 12 6z m-70 -29 c-3 -3 -11 0 -18 7 -9 10 -8 11 6 5 10 -3 15 -9 12
-12z m-1148 2 c-3 -3 -12 -4 -19 -1 -8 3 -5 6 6 6 11 1 17 -2 13 -5z m969 -21
c-4 -4 -12 -1 -19 7 -9 10 -9 11 1 6 7 -4 12 -2 13 6 0 11 2 11 6 0 3 -7 2
-16 -1 -19z m28 -4 c-3 -5 0 -17 7 -25 9 -11 9 -18 1 -26 -7 -7 -12 -8 -12 -2
0 5 -5 2 -11 -6 -8 -13 -9 -12 -7 4 2 10 -2 21 -7 23 -6 2 -11 -12 -12 -32 0
-28 2 -33 12 -25 10 8 15 8 21 -1 4 -7 3 -9 -4 -5 -17 10 -32 -26 -21 -49 10
-19 10 -19 -4 -2 -9 11 -18 14 -21 8 -4 -5 -2 -12 4 -16 5 -3 10 -11 10 -18 0
-6 -6 -2 -14 8 -8 11 -11 26 -8 35 5 13 3 13 -11 1 -19 -15 -23 -42 -6 -38 6
1 14 -5 16 -13 4 -12 3 -12 -5 -2 -5 8 -13 12 -18 10 -20 -7 -14 34 8 53 17
15 18 19 6 15 -53 -18 -53 -18 -33 -4 11 7 21 22 23 33 2 11 12 28 23 37 20
17 16 25 -11 24 -8 -1 -15 -6 -15 -13 0 -6 -3 -14 -7 -18 -8 -9 -5 16 5 32 8
12 25 12 45 -1 16 -9 44 12 35 27 -3 6 -1 7 6 3 6 -4 9 -12 5 -17z m99 15 c-7
-3 -9 -13 -6 -22 4 -14 3 -14 -5 -2 -12 16 -7 30 11 29 9 0 9 -2 0 -5z m-1108
-14 c3 -5 1 -10 -4 -10 -6 0 -11 5 -11 10 0 6 2 10 4 10 3 0 8 -4 11 -10z
m1050 -9 c-8 -14 -25 -14 -25 0 0 5 5 7 10 4 6 -3 10 -1 10 6 0 7 3 10 6 6 3
-3 3 -10 -1 -16z m24 -17 c-6 -8 -15 -12 -18 -8 -3 4 0 9 7 11 6 3 9 10 6 15
-4 7 -2 8 5 4 9 -6 9 -11 0 -22z m16 -24 c-3 -5 -12 -10 -18 -10 -7 0 -6 4 3
10 19 12 23 12 15 0z m37 -8 c-7 -2 -10 -8 -6 -13 3 -5 0 -8 -8 -7 -7 2 -12
-3 -10 -10 1 -8 -2 -11 -8 -7 -8 5 -6 13 4 24 9 10 13 21 9 25 -4 4 1 4 12 0
11 -5 14 -9 7 -12z m53 8 c-3 -5 -14 -10 -23 -9 -14 0 -13 2 3 9 27 11 27 11
20 0z m35 -20 c0 -5 -7 -7 -15 -4 -8 4 -15 8 -15 10 0 2 7 4 15 4 8 0 15 -4
15 -10z m-192 -25 c-3 -3 -9 2 -12 12 -6 14 -5 15 5 6 7 -7 10 -15 7 -18z
m-118 10 c0 -2 -10 -9 -22 -15 -22 -11 -22 -10 -4 4 21 17 26 19 26 11z m-11
-69 c-3 -3 -11 5 -18 17 -13 21 -12 21 5 5 10 -10 16 -20 13 -22z m-7 -17 l33
-31 -37 23 c-21 13 -38 27 -38 32 0 12 8 8 42 -24z m126 17 c-7 -8 -15 -12
-17 -11 -5 6 10 25 20 25 5 0 4 -6 -3 -14z m-208 -27 c0 -6 -4 -7 -10 -4 -5 3
-10 11 -10 16 0 6 5 7 10 4 6 -3 10 -11 10 -16z m307 -4 c5 -4 3 -5 -4 -1 -6
3 -14 2 -18 -4 -7 -12 -25 -4 -25 11 0 11 36 7 47 -6z m-123 -4 c3 -5 -1 -11
-9 -14 -9 -4 -12 -1 -8 9 6 16 10 17 17 5z m36 -1 c0 -5 -4 -10 -10 -10 -5 0
-10 5 -10 10 0 6 5 10 10 10 6 0 10 -4 10 -10z m-89 -53 c-10 -9 -11 -8 -5 6
3 10 9 15 12 12 3 -3 0 -11 -7 -18z m-240 -24 c-12 -20 -14 -14 -5 12 4 9 9
14 11 11 3 -2 0 -13 -6 -23z m267 3 c-7 -8 -15 -12 -17 -11 -5 6 10 25 20 25
5 0 4 -6 -3 -14z m-29 -42 c-6 -8 -16 -14 -22 -14 -6 0 -2 7 9 16 17 14 17 15
1 10 -11 -3 -16 -2 -12 4 3 6 1 10 -4 10 -6 0 -11 5 -11 10 0 6 11 3 25 -6 20
-13 23 -19 14 -30z m-1043 -11 c-4 -10 -1 -13 13 -8 11 3 22 1 26 -4 4 -7 -1
-9 -12 -5 -14 4 -13 1 5 -15 13 -11 24 -24 25 -28 1 -4 12 -8 24 -7 12 0 19
-4 17 -8 -3 -5 -13 -7 -21 -6 -9 2 -18 -2 -20 -8 -2 -6 3 -11 12 -12 8 -1 23
-3 32 -4 14 -1 14 -4 -4 -15 -20 -14 -22 -50 -2 -37 5 3 7 10 4 15 -3 5 1 6 9
3 9 -3 16 -10 16 -16 0 -5 4 -7 10 -3 5 3 6 13 3 23 -7 18 -5 17 17 -12 8 -11
10 -17 3 -13 -7 4 -19 -3 -30 -16 -16 -22 -19 -22 -33 -8 -8 9 -12 12 -7 7 14
-20 7 -29 -9 -10 -15 18 -15 18 -5 -2 6 -12 8 -24 5 -26 -3 -3 2 -8 10 -11 10
-4 13 -1 10 8 -4 9 1 12 13 10 10 -2 20 -4 22 -4 2 -1 -6 -10 -18 -20 -13 -12
-18 -22 -11 -26 5 -3 10 -1 10 5 0 6 4 9 9 6 5 -3 15 2 22 11 8 9 9 14 3 10
-6 -3 -11 0 -11 8 0 8 4 15 9 15 7 0 12 -15 9 -32 -2 -17 17 -7 28 15 7 13 9
15 6 4 -3 -10 0 -28 6 -40 11 -20 12 -20 25 -2 8 10 14 15 14 9 0 -5 -7 -17
-15 -28 -17 -23 -3 -58 20 -50 8 4 12 11 9 16 -4 6 -10 5 -16 -3 -7 -11 -8
-10 -4 4 4 13 2 16 -7 11 -6 -4 -3 2 7 14 15 17 22 19 33 11 7 -6 13 -17 13
-23 0 -6 -7 -3 -14 6 -7 10 -16 15 -20 11 -3 -3 1 -15 10 -25 13 -13 21 -15
30 -7 9 7 12 6 10 -7 -3 -17 -46 -68 -53 -61 -7 7 9 37 17 32 5 -3 12 0 16 6
5 8 3 9 -6 4 -9 -6 -11 -4 -6 6 4 8 -1 5 -11 -7 -10 -11 -27 -25 -37 -31 -12
-7 -15 -13 -7 -17 6 -4 11 -2 11 4 0 6 5 8 10 5 6 -4 7 -12 3 -18 -3 -7 3 -3
16 7 20 18 23 18 37 4 15 -15 14 -17 -5 -27 -16 -9 -21 -9 -21 0 0 6 -7 8 -16
5 -11 -4 -28 6 -50 29 -18 19 -37 35 -43 35 -5 0 -13 4 -16 10 -4 6 1 7 10 3
16 -5 16 -4 1 24 -8 17 -12 33 -9 37 4 3 1 6 -5 6 -7 0 -12 -4 -12 -10 0 -5
-5 -10 -11 -10 -5 0 -7 5 -4 10 3 6 -1 13 -9 16 -9 3 -14 10 -11 14 3 5 -2 13
-12 18 -13 8 -21 6 -31 -6 -16 -20 -6 4 12 27 15 19 17 43 3 38 -7 -2 -12 -9
-12 -14 0 -6 -4 -15 -9 -20 -5 -4 -7 -4 -4 2 6 10 -16 36 -29 34 -4 0 -9 5
-11 13 -3 11 -2 11 6 0 7 -11 10 -11 15 3 4 9 3 14 -2 10 -5 -3 -12 1 -14 7
-4 8 -8 4 -12 -9 -8 -26 -22 -31 -22 -8 0 8 4 15 9 15 4 0 8 7 8 16 0 8 5 12
10 9 6 -3 10 -1 10 4 0 16 -20 13 -26 -3 -3 -8 -12 -17 -20 -20 -10 -4 -12 -2
-8 6 5 7 2 9 -8 6 -8 -4 -15 0 -15 7 0 10 5 11 18 4 19 -10 35 3 24 20 -3 5 0
13 6 16 5 4 8 13 5 21 -3 8 1 17 9 21 12 4 13 8 4 19 -9 11 -15 11 -25 3 -10
-8 -14 -8 -14 -1 0 15 31 31 47 25 8 -3 12 -12 9 -20z m955 10 c13 -16 12 -17
-3 -4 -17 13 -22 21 -14 21 2 0 10 -8 17 -17z m-186 -15 c5 4 5 1 1 -6 -6 -10
-11 -10 -22 -1 -8 6 -14 14 -14 16 0 3 6 0 13 -6 8 -6 18 -7 22 -3z m-6 -44
c14 -12 -19 -1 -35 12 -18 14 -18 14 6 3 14 -6 27 -13 29 -15z m225 -4 c-6 -6
-10 -3 -10 10 0 13 4 16 10 10 7 -7 7 -13 0 -20z m-247 -23 c-6 -20 -26 -19
-24 1 1 12 6 18 14 15 8 -3 12 -10 10 -16z m183 19 c0 -2 -7 -6 -15 -10 -8 -3
-15 -1 -15 4 0 6 7 10 15 10 8 0 15 -2 15 -4z m-36 -22 c3 -8 2 -12 -4 -9 -6
3 -10 10 -10 16 0 14 7 11 14 -7z m106 -18 c0 -3 -4 -8 -10 -11 -5 -3 -10 -1
-10 4 0 6 5 11 10 11 6 0 10 -2 10 -4z m-105 -15 c-9 -8 -36 -10 -30 -2 2 4
11 8 20 8 8 0 13 -3 10 -6z m35 -5 c0 -2 -7 -7 -16 -10 -8 -3 -12 -2 -9 4 6
10 25 14 25 6z m-115 -27 c-4 -5 -1 -9 6 -9 7 0 9 -3 6 -6 -9 -9 -38 16 -31
27 3 5 10 7 15 3 5 -3 7 -10 4 -15z m-1065 -16 c-15 -11 -18 -18 -11 -27 8 -9
7 -13 -4 -13 -8 0 -12 4 -9 9 3 4 1 8 -5 8 -13 0 -7 30 9 40 7 4 19 6 27 3 11
-4 9 -9 -7 -20z m887 -5 c-3 -8 -6 -5 -6 6 -1 11 2 17 5 13 3 -3 4 -12 1 -19z
m219 7 c-1 -8 -5 -17 -8 -21 -5 -4 -4 16 1 34 3 9 9 -1 7 -13z m57 -19 c4 4 1
14 -6 23 -10 14 -10 14 4 4 9 -7 19 -10 23 -6 4 4 4 0 1 -9 -9 -23 -52 -50
-60 -38 -4 6 -12 8 -18 4 -7 -3 -3 2 8 11 11 9 19 24 17 33 -1 11 2 9 11 -6 7
-12 16 -20 20 -16z m-188 15 c3 -5 2 -12 -3 -15 -5 -3 -9 1 -9 9 0 17 3 19 12
6z m-951 -9 c3 -5 -1 -9 -9 -9 -8 0 -12 4 -9 9 3 4 7 8 9 8 2 0 6 -4 9 -8z
m240 -27 c3 -8 0 -17 -7 -21 -7 -4 -9 -3 -4 1 4 5 -1 17 -10 27 -15 17 -15 18
-1 13 9 -4 19 -13 22 -20z m163 3 c2 -17 0 -19 -6 -9 -5 8 -16 11 -25 8 -9 -4
-16 -4 -16 -1 0 2 10 9 23 14 12 5 22 9 22 9 1 1 2 -9 2 -21z m54 -11 c-10 -9
-11 -8 -5 6 3 10 9 15 12 12 3 -3 0 -11 -7 -18z m346 1 c-3 -8 -6 -5 -6 6 -1
11 2 17 5 13 3 -3 4 -12 1 -19z m-860 -21 c0 -8 -6 -14 -14 -14 -17 0 -17 14
0 20 6 3 12 6 13 6 0 1 1 -5 1 -12z m500 -19 c-3 -8 -6 -5 -6 6 -1 11 2 17 5
13 3 -3 4 -12 1 -19z m613 -2 c0 -2 -8 -10 -17 -17 -16 -13 -17 -12 -4 4 13
16 21 21 21 13z m-1153 -12 c-3 -3 -12 -4 -19 -1 -8 3 -5 6 6 6 11 1 17 -2 13
-5z m413 -14 c0 -5 -2 -10 -4 -10 -3 0 -8 5 -11 10 -3 6 -1 10 4 10 6 0 11 -4
11 -10z m-465 -30 c-3 -5 -12 -10 -18 -10 -7 0 -6 4 3 10 19 12 23 12 15 0z
m496 -13 c-10 -9 -11 -8 -5 6 3 10 9 15 12 12 3 -3 0 -11 -7 -18z m-521 -22
c0 -5 -5 -3 -10 5 -5 8 -10 20 -10 25 0 6 5 3 10 -5 5 -8 10 -19 10 -25z m35
-3 c-3 -3 -11 0 -18 7 -9 10 -8 11 6 5 10 -3 15 -9 12 -12z m-58 -14 c-3 -8
-6 -5 -6 6 -1 11 2 17 5 13 3 -3 4 -12 1 -19z m868 -6 c-3 -3 -11 0 -18 7 -9
10 -8 11 6 5 10 -3 15 -9 12 -12z m-278 -8 c-3 -3 -12 -4 -19 -1 -8 3 -5 6 6
6 11 1 17 -2 13 -5z m-631 -59 c-1 -8 -5 -17 -8 -21 -5 -4 -4 16 1 34 3 9 9
-1 7 -13z m-36 -45 c0 -5 -5 -10 -11 -10 -5 0 -7 5 -4 10 3 6 8 10 11 10 2 0
4 -4 4 -10z m-103 -116 c-3 -3 -12 -4 -19 -1 -8 3 -5 6 6 6 11 1 17 -2 13 -5z
m703 -40 c0 -8 -19 -13 -24 -6 -3 5 1 9 9 9 8 0 15 -2 15 -3z m-835 -45 c-5
-15 -4 -19 4 -15 6 4 11 2 11 -4 0 -7 -8 -9 -20 -5 -15 5 -18 2 -15 -15 4 -19
2 -20 -12 -8 -15 11 -16 11 -10 -5 6 -15 4 -16 -13 -7 -11 6 -20 13 -20 16 0
3 4 3 9 -1 6 -3 22 10 38 30 33 41 37 43 28 14z m36 -2 c-10 -9 -11 -8 -5 6 3
10 9 15 12 12 3 -3 0 -11 -7 -18z m811 6 c-6 -2 -9 -10 -6 -15 4 -7 2 -8 -4
-4 -18 11 -14 26 6 25 10 0 12 -3 4 -6z m-57 -23 c-3 -5 -12 -10 -18 -10 -7 0
-6 4 3 10 19 12 23 12 15 0z m-884 -107 c10 -11 10 -14 2 -9 -7 4 -13 2 -13
-3 0 -6 -3 -10 -7 -10 -20 3 -26 -2 -13 -11 9 -6 10 -10 3 -10 -20 0 -23 16
-7 38 18 26 18 26 35 5z m649 -148 c0 -8 -3 -16 -7 -18 -5 -3 -8 5 -8 18 0 13
3 21 8 18 4 -2 7 -10 7 -18z m44 4 c-3 -5 -10 -7 -15 -3 -5 3 -7 10 -3 15 3 5
10 7 15 3 5 -3 7 -10 3 -15z m-853 -8 c6 10 8 8 7 -7 -2 -18 -5 -20 -19 -11
-10 6 -15 16 -12 21 4 6 8 5 11 -3 4 -11 6 -11 13 0z m-15 -33 c4 -7 4 -10 -1
-6 -4 4 -15 2 -24 -5 -14 -11 -14 -10 -2 6 16 20 18 21 27 5z m-74 -66 c-4
-11 -1 -13 9 -7 8 5 11 5 6 -1 -5 -5 -14 -9 -20 -9 -7 -1 -11 -7 -9 -14 1 -7
-2 -10 -7 -7 -5 4 -12 2 -16 -4 -3 -5 -2 -10 2 -10 5 0 9 -10 10 -22 2 -21 1
-21 -9 -5 -16 29 -16 50 -1 73 15 24 44 29 35 6z m63 -2 c-3 -5 -12 -10 -18
-10 -7 0 -6 4 3 10 19 12 23 12 15 0z m703 -94 c1 -15 -1 -17 -7 -7 -7 11 -9
11 -14 0 -3 -8 -5 -5 -4 7 1 27 23 27 25 0z m32 10 c0 -3 -4 -8 -10 -11 -5 -3
-10 -1 -10 4 0 6 5 11 10 11 6 0 10 -2 10 -4z m-889 -69 c-10 -9 -11 -8 -5 6
3 10 9 15 12 12 3 -3 0 -11 -7 -18z m733 -25 c3 -5 -1 -9 -9 -9 -8 0 -12 4 -9
9 3 4 7 8 9 8 2 0 6 -4 9 -8z m-924 -218 c0 -8 -19 -13 -24 -6 -3 5 1 9 9 9 8
0 15 -2 15 -3z m763 -41 c-3 -7 -9 -11 -14 -8 -4 3 -13 -3 -19 -14 -5 -11 -19
-19 -30 -18 -14 1 -16 4 -8 14 12 15 22 17 13 3 -3 -5 -2 -10 4 -10 5 0 13 9
16 20 3 11 14 20 23 21 11 0 12 2 4 6 -6 2 -9 9 -6 15 9 14 24 -11 17 -29z
m-886 -38 c0 -8 -4 -12 -9 -9 -5 3 -6 10 -3 15 9 13 12 11 12 -6z m770 -31
c-3 -3 -12 -4 -19 -1 -8 3 -5 6 6 6 11 1 17 -2 13 -5z m-727 -74 c0 -5 -5 -10
-11 -10 -5 0 -7 5 -4 10 3 6 8 10 11 10 2 0 4 -4 4 -10z m-22 -28 c17 14 33
-7 24 -31 -5 -14 -4 -14 14 -1 18 14 18 14 5 -3 -11 -13 -17 -15 -28 -6 -10 9
-11 14 -2 19 7 5 7 10 1 14 -5 3 -17 -3 -26 -13 -13 -14 -14 -21 -5 -27 8 -4
10 -3 5 4 -4 7 -3 12 2 12 15 0 22 -13 13 -24 -7 -8 2 -11 27 -12 20 0 31 1
24 3 -6 3 -9 9 -6 15 3 5 13 0 21 -12 11 -16 18 -19 26 -11 6 6 16 11 22 11 5
0 3 -5 -5 -10 -17 -11 -20 -41 -5 -53 10 -7 -13 -31 -39 -40 -6 -3 -7 -8 -2
-13 5 -5 11 -4 13 4 3 6 9 12 14 12 6 0 8 -4 4 -9 -3 -5 0 -13 6 -17 8 -5 9
-3 4 6 -6 9 -4 11 6 5 11 -7 12 -6 2 6 -9 11 -7 20 9 39 11 14 17 19 13 12 -4
-8 4 -23 19 -37 24 -22 31 -23 27 -2 -1 5 3 6 9 2 6 -3 8 -11 5 -16 -4 -5 5
-20 19 -34 14 -14 26 -28 26 -30 0 -3 0 -10 0 -16 0 -6 9 -8 23 -4 21 6 21 5
2 -7 -21 -14 -31 -38 -16 -38 5 0 11 3 14 8 2 4 3 2 1 -4 -1 -6 2 -16 7 -21 5
-5 -3 -19 -20 -33 -32 -28 -51 -35 -51 -20 0 5 6 10 14 10 12 0 13 7 7 39 -1
2 -10 -7 -21 -20 -18 -22 -26 -17 -21 13 0 4 -9 10 -20 13 -11 4 -18 12 -16
18 5 15 77 60 77 48 0 -12 -41 -42 -50 -36 -4 2 -7 -2 -7 -10 0 -8 4 -15 9
-15 4 0 8 5 8 10 0 6 5 10 11 10 5 0 8 -4 4 -9 -3 -5 0 -13 6 -17 8 -5 9 -3 4
6 -6 9 -4 11 5 5 9 -6 11 -4 5 5 -5 8 -4 11 2 7 5 -3 9 8 7 26 -2 46 -2 46
-23 44 -15 -1 -17 -4 -9 -14 18 -22 -2 -14 -30 12 -15 14 -31 25 -37 25 -5 -1
6 -15 25 -32 19 -17 27 -28 17 -24 -10 3 -16 2 -13 -3 3 -5 -1 -11 -9 -14 -9
-4 -12 -1 -8 9 3 7 1 14 -5 14 -6 0 -13 -6 -15 -12 -4 -10 -6 -10 -6 0 -1 7 6
15 14 18 8 4 12 10 9 16 -3 5 -11 4 -20 -3 -10 -8 -14 -8 -14 0 0 6 5 11 11
11 5 0 7 5 4 10 -5 7 -11 8 -18 1 -8 -6 -18 -5 -31 4 -10 8 -25 11 -34 8 -13
-4 -13 -2 2 9 12 10 16 20 11 28 -7 11 -10 9 -16 -6 -6 -16 -8 -16 -8 -2 -1 9
4 20 9 23 6 4 8 10 5 15 -3 5 -1 12 5 15 19 12 -10 35 -42 35 -18 0 -27 4 -23
10 4 6 3 16 -2 23 -5 7 -10 23 -11 36 -1 18 2 21 10 13 9 -9 15 -9 26 0z m652
-12 c0 -5 -5 -10 -11 -10 -5 0 -7 5 -4 10 3 6 8 10 11 10 2 0 4 -4 4 -10z
m-554 -27 c-1 -7 -5 -15 -9 -18 -4 -3 -5 -2 -2 2 3 3 -2 11 -11 17 -13 10 -13
12 4 12 11 0 19 -6 18 -13z m-214 -40 c-10 -16 -17 -35 -15 -43 4 -12 3 -13
-5 -1 -5 7 -14 11 -20 7 -6 -3 -13 -2 -17 4 -3 6 7 18 24 28 17 9 31 20 31 25
0 4 5 7 11 7 6 0 2 -12 -9 -27z m235 -25 c-3 -8 -6 -5 -6 6 -1 11 2 17 5 13 3
-3 4 -12 1 -19z m500 0 c-2 -12 -11 -22 -19 -24 -9 -1 -26 -5 -39 -8 -17 -4
-15 -2 6 8 17 8 31 19 31 25 2 19 4 21 14 21 5 0 8 -10 7 -22z m-595 -14 c-5
-26 -12 -31 -12 -10 0 10 -5 14 -12 10 -6 -4 -8 -3 -4 4 3 5 0 13 -6 16 -7 2
-2 3 12 2 18 -3 24 -8 22 -22z m531 11 c-3 -9 -8 -14 -10 -11 -3 3 -2 9 2 15
9 16 15 13 8 -4z m-563 -30 c14 -18 13 -19 -1 -8 -9 7 -19 10 -23 6 -4 -4 -4
1 0 10 3 10 7 17 8 15 1 -2 8 -12 16 -23z m190 -1 c0 -2 -7 -4 -15 -4 -8 0
-15 4 -15 10 0 5 7 7 15 4 8 -4 15 -8 15 -10z m80 -74 c0 -5 -2 -10 -4 -10 -3
0 -8 5 -11 10 -3 6 -1 10 4 10 6 0 11 -4 11 -10z m-185 -20 c3 -5 1 -10 -4
-10 -6 0 -11 5 -11 10 0 6 2 10 4 10 3 0 8 -4 11 -10z m200 0 c-3 -5 -12 -10
-18 -10 -7 0 -6 4 3 10 19 12 23 12 15 0z m16 -47 c-12 -20 -14 -14 -5 12 4 9
9 14 11 11 3 -2 0 -13 -6 -23z m95 -15 c4 -7 4 -10 -1 -6 -4 4 -14 3 -22 -4
-11 -8 -12 -7 -7 6 7 19 20 21 30 4z m64 2 c-8 -5 -11 -10 -6 -10 5 0 3 -7 -4
-15 -9 -11 -15 -11 -24 -2 -11 9 -9 14 8 23 26 15 47 18 26 4z m-659 -90 c5 0
9 -5 9 -11 0 -8 -4 -9 -13 0 -8 6 -17 8 -21 4 -4 -4 4 -13 16 -20 l23 -14 -25
7 c-14 3 -22 3 -18 -1 4 -5 3 -14 -4 -22 -9 -12 -6 -13 17 -9 15 3 24 2 21 -2
-4 -3 -24 -7 -44 -9 -24 -1 -31 1 -21 7 7 5 15 14 15 20 1 5 3 12 4 15 1 3 3
13 4 23 1 9 6 24 11 32 8 13 10 13 13 -2 2 -10 8 -18 13 -18z m469 11 c0 -6
-4 -13 -10 -16 -5 -3 -10 1 -10 9 0 9 5 16 10 16 6 0 10 -4 10 -9z m-152 -85
c-10 -7 -14 -17 -10 -21 4 -5 1 -5 -7 0 -12 7 -11 10 4 22 24 17 36 17 13 -1z
m-356 -23 c-10 -4 -10 -8 -1 -19 10 -12 9 -13 -4 -8 -19 7 -17 -24 3 -36 10
-6 8 -10 -8 -19 -21 -11 -42 2 -22 14 8 5 8 11 0 20 -8 10 -8 15 0 20 6 4 9
12 7 19 -3 7 4 12 17 13 11 0 15 -1 8 -4z m77 -57 c9 -11 9 -16 -1 -22 -7 -4
-10 -4 -6 1 4 4 3 14 -3 22 -6 7 -9 13 -6 13 2 0 10 -6 16 -14z"/>
<path d="M3886 3469 c2 -4 -2 -10 -8 -12 -9 -4 -9 -6 -1 -6 7 -1 10 -13 7 -33
l-4 -33 15 28 c9 15 21 27 27 27 7 0 7 4 -1 13 -6 8 -9 16 -6 18 2 3 -4 5 -15
5 -10 0 -17 -3 -14 -7z m19 -18 c3 -5 2 -12 -3 -15 -5 -3 -9 1 -9 9 0 17 3 19
12 6z"/>
<path d="M3855 3360 c3 -5 8 -10 11 -10 2 0 4 5 4 10 0 6 -5 10 -11 10 -5 0
-7 -4 -4 -10z"/>
<path d="M3781 3316 c-9 -10 -8 -15 3 -19 8 -3 17 1 20 8 7 20 -9 28 -23 11z"/>
<path d="M3720 3235 c7 -9 15 -13 17 -11 7 7 -7 26 -19 26 -6 0 -6 -6 2 -15z"/>
<path d="M3661 3208 c-6 -16 -4 -25 5 -31 8 -5 12 -12 9 -18 -4 -5 -2 -9 4 -9
10 0 9 39 -2 57 -4 6 -1 14 5 16 10 4 10 6 0 6 -7 1 -16 -9 -21 -21z"/>
<path d="M2607 2903 c-11 -13 -16 -27 -13 -30 3 -4 6 -1 6 5 0 7 5 12 12 12 6
0 9 -3 5 -6 -3 -4 4 -15 16 -26 17 -15 18 -18 5 -14 -10 3 -18 1 -18 -4 0 -6
10 -10 22 -10 20 0 20 -1 4 -19 -10 -11 -13 -22 -8 -25 5 -3 15 1 22 10 11 12
15 12 23 2 7 -10 8 -9 4 3 -3 9 0 22 6 28 6 6 8 12 4 12 -4 1 -11 3 -17 4 -5
1 -15 3 -21 4 -8 1 -8 5 1 16 10 12 9 16 -4 21 -9 3 -14 10 -11 14 3 4 -1 12
-8 18 -9 7 -17 3 -30 -15z m32 0 c-3 -21 2 -33 13 -27 7 5 8 3 3 -6 -6 -10
-11 -9 -22 5 -16 22 -17 35 -3 35 6 0 9 -3 9 -7z m51 -68 c0 -1 -12 -12 -27
-26 -20 -17 -23 -18 -10 -3 9 11 15 23 12 26 -3 2 2 5 10 5 8 0 15 -1 15 -2z"/>
<path d="M2716 2791 c-4 -5 -2 -12 3 -15 5 -4 12 -2 15 3 4 5 2 12 -3 15 -5 4
-12 2 -15 -3z"/>
<path d="M2758 2703 c-6 -12 -4 -25 11 -61 11 -26 18 -31 35 -26 18 6 19 5 7
-10 -7 -9 -9 -16 -3 -16 16 0 23 30 8 36 -14 5 -16 21 -4 39 3 6 0 19 -8 30
-8 11 -14 14 -14 6 0 -10 -3 -11 -14 -2 -8 7 -16 8 -18 4z m35 -19 c4 -1 10
-2 13 -3 4 0 2 -7 -3 -13 -6 -7 -9 -21 -8 -31 2 -9 -1 -15 -6 -11 -5 3 -7 9
-4 14 3 4 1 10 -5 12 -6 2 -12 13 -15 26 -3 16 0 20 8 15 7 -4 15 -8 20 -9z"/>
<path d="M2776 2668 c3 -5 10 -6 15 -3 13 9 11 12 -6 12 -8 0 -12 -4 -9 -9z"/>
<path d="M2876 2562 c-3 -5 1 -9 9 -9 8 0 12 4 9 9 -3 4 -7 8 -9 8 -2 0 -6 -4
-9 -8z"/>
<path d="M2340 2800 c-9 -6 -10 -10 -3 -10 6 0 15 5 18 10 8 12 4 12 -15 0z"/>
<path d="M3490 2759 c0 -5 5 -7 10 -4 6 3 10 8 10 11 0 2 -4 4 -10 4 -5 0 -10
-5 -10 -11z"/>
<path d="M1499 1883 c-13 -16 -12 -17 4 -4 9 7 17 15 17 17 0 8 -8 3 -21 -13z"/>
<path d="M1196 1199 c9 -10 11 -19 6 -23 -6 -3 -9 -12 -8 -19 2 -14 21 -21 21
-8 0 5 3 13 8 17 4 4 7 2 7 -4 0 -7 5 -12 11 -12 8 0 8 5 -1 15 -7 8 -9 15 -6
15 18 0 -14 34 -33 35 -19 2 -20 0 -5 -16z m27 -3 c3 -8 -2 -20 -11 -27 -14
-11 -15 -11 -5 0 6 7 9 20 6 27 -3 8 -3 14 0 14 3 0 7 -6 10 -14z"/>
<path d="M1266 1141 c-4 -6 0 -14 9 -17 14 -6 14 -8 -2 -21 -10 -8 -12 -11 -5
-8 7 4 21 0 30 -8 17 -14 52 -20 52 -8 0 10 -17 33 -24 32 -20 -3 -26 0 -20
12 4 6 4 9 -1 5 -4 -4 -13 0 -20 9 -8 11 -14 13 -19 4z m58 -60 c-2 -3 -12 3
-22 13 -16 17 -16 18 5 5 12 -7 20 -15 17 -18z"/>
<path d="M1226 1101 c-4 -5 -2 -12 3 -15 5 -4 12 -2 15 3 4 5 2 12 -3 15 -5 4
-12 2 -15 -3z"/>
<path d="M1375 981 c-3 -5 -1 -12 5 -16 6 -4 7 -11 4 -17 -4 -6 2 -6 15 1 26
14 26 18 2 31 -12 6 -22 6 -26 1z m30 -19 c-3 -3 -11 0 -18 7 -9 10 -8 11 6 5
10 -3 15 -9 12 -12z"/>
<path d="M1333 965 c0 -8 4 -15 9 -15 4 0 8 4 8 9 0 6 -4 12 -8 15 -5 3 -9 -1
-9 -9z"/>
<path d="M994 1194 c-18 -14 -18 -15 4 -4 12 6 22 13 22 15 0 8 -5 6 -26 -11z"/>
<path d="M3950 4440 c0 -5 5 -10 11 -10 5 0 7 5 4 10 -3 6 -8 10 -11 10 -2 0
-4 -4 -4 -10z"/>
<path d="M3670 4405 c0 -5 5 -17 10 -25 5 -8 10 -10 10 -5 0 6 -5 17 -10 25
-5 8 -10 11 -10 5z"/>
<path d="M3743 4392 c-9 -15 -8 -19 3 -19 8 0 12 3 9 5 -3 3 0 11 6 19 6 7 7
13 3 13 -5 0 -14 -8 -21 -18z"/>
<path d="M4266 4402 c-3 -5 1 -9 9 -9 8 0 12 4 9 9 -3 4 -7 8 -9 8 -2 0 -6 -4
-9 -8z"/>
<path d="M3705 4390 c-3 -6 1 -7 9 -4 18 7 21 14 7 14 -6 0 -13 -4 -16 -10z"/>
<path d="M4270 4376 c0 -2 8 -10 18 -17 15 -13 16 -12 3 4 -13 16 -21 21 -21
13z"/>
<path d="M3600 4315 c5 -7 8 -14 5 -17 -3 -2 2 -5 10 -5 10 0 12 4 5 12 -5 7
-8 14 -5 17 3 2 -2 5 -10 5 -10 0 -12 -4 -5 -12z"/>
<path d="M3515 4260 c-3 -5 -1 -10 4 -10 6 0 11 5 11 10 0 6 -2 10 -4 10 -3 0
-8 -4 -11 -10z"/>
<path d="M4266 4165 c-9 -26 -7 -32 5 -12 6 10 9 21 6 23 -2 3 -7 -2 -11 -11z"/>
<path d="M4255 4120 c-3 -5 -1 -10 4 -10 6 0 11 5 11 10 0 6 -2 10 -4 10 -3 0
-8 -4 -11 -10z"/>
<path d="M4230 4089 c0 -5 5 -7 10 -4 6 3 10 8 10 11 0 2 -4 4 -10 4 -5 0 -10
-5 -10 -11z"/>
<path d="M3383 4075 c4 -8 2 -17 -3 -20 -4 -3 -10 1 -13 7 -2 7 -8 10 -12 6
-4 -4 0 -14 8 -23 17 -16 32 -21 23 -6 -3 5 1 14 9 21 15 13 12 30 -7 30 -5 0
-8 -7 -5 -15z"/>
<path d="M3273 4015 c0 -8 4 -12 9 -9 5 3 6 10 3 15 -9 13 -12 11 -12 -6z"/>
<path d="M4226 4003 c-6 -14 -5 -15 5 -6 7 7 10 15 7 18 -3 3 -9 -2 -12 -12z"/>
<path d="M4250 3980 c0 -5 5 -10 11 -10 5 0 7 5 4 10 -3 6 -8 10 -11 10 -2 0
-4 -4 -4 -10z"/>
<path d="M4180 3970 c0 -5 7 -10 16 -10 8 0 12 -4 9 -10 -3 -6 1 -7 10 -4 18
7 18 7 -12 23 -15 8 -23 8 -23 1z"/>
<path d="M3270 3961 c0 -12 29 -23 41 -15 5 3 6 10 3 16 -4 6 -10 5 -15 -3 -6
-10 -9 -11 -9 -1 0 6 -4 12 -10 12 -5 0 -10 -4 -10 -9z"/>
<path d="M3186 3922 c-3 -4 4 -9 15 -9 23 -2 25 3 4 10 -8 4 -16 3 -19 -1z"/>
<path d="M4233 3905 c0 -8 4 -12 9 -9 5 3 6 10 3 15 -9 13 -12 11 -12 -6z"/>
<path d="M4169 3838 c-1 -7 -1 -16 0 -20 0 -5 -3 -8 -8 -8 -6 0 -9 -9 -8 -20
2 -24 13 -26 21 -4 3 8 10 13 15 9 5 -3 13 0 17 7 4 7 4 10 -1 6 -12 -11 -35
11 -28 28 3 8 2 14 -1 14 -3 0 -7 -6 -7 -12z"/>
<path d="M3050 3780 c0 -5 5 -10 11 -10 5 0 7 5 4 10 -3 6 -8 10 -11 10 -2 0
-4 -4 -4 -10z"/>
<path d="M4172 3680 c0 -14 2 -19 5 -12 2 6 2 18 0 25 -3 6 -5 1 -5 -13z"/>
<path d="M2970 3680 c0 -5 5 -10 11 -10 5 0 7 5 4 10 -3 6 -8 10 -11 10 -2 0
-4 -4 -4 -10z"/>
<path d="M2955 3640 c-3 -5 -1 -10 4 -10 6 0 11 5 11 10 0 6 -2 10 -4 10 -3 0
-8 -4 -11 -10z"/>
<path d="M2875 3550 c-3 -6 1 -7 9 -4 18 7 21 14 7 14 -6 0 -13 -4 -16 -10z"/>
<path d="M2821 3516 c-9 -11 -9 -16 1 -22 7 -4 10 -4 6 1 -4 4 -3 14 3 22 6 7
9 13 6 13 -2 0 -10 -6 -16 -14z"/>
<path d="M4149 3490 c-13 -10 -20 -19 -16 -20 5 0 15 7 24 15 8 8 19 12 25 9
7 -4 8 -2 4 4 -9 15 -10 15 -37 -8z"/>
<path d="M2776 3458 c3 -5 10 -6 15 -3 13 9 11 12 -6 12 -8 0 -12 -4 -9 -9z"/>
<path d="M4074 3441 c15 -16 15 -19 1 -24 -8 -4 -15 -12 -14 -19 0 -10 2 -10
6 0 2 6 9 10 14 6 5 -3 9 0 9 5 0 6 3 10 8 10 4 -1 16 -1 27 1 l20 1 -20 9
c-12 5 -14 9 -6 9 8 1 11 4 8 7 -4 4 -13 2 -21 -5 -11 -9 -15 -8 -20 4 -3 8
-11 15 -17 15 -8 0 -6 -7 5 -19z"/>
<path d="M4148 3453 c6 -2 10 -8 8 -12 -3 -4 1 -8 9 -8 11 0 12 4 4 14 -6 7
-17 13 -23 12 -7 0 -6 -2 2 -6z"/>
<path d="M4115 3399 c-3 -4 2 -6 10 -5 21 3 28 13 10 13 -9 0 -18 -4 -20 -8z"/>
<path d="M2721 3356 c-8 -10 -8 -16 3 -25 9 -8 16 -8 20 -2 4 5 2 12 -4 16 -6
4 -8 11 -5 16 9 14 -1 11 -14 -5z"/>
<path d="M2690 3341 c0 -6 4 -13 10 -16 6 -3 7 1 4 9 -7 18 -14 21 -14 7z"/>
<path d="M4096 3338 c3 -5 10 -6 15 -3 13 9 11 12 -6 12 -8 0 -12 -4 -9 -9z"/>
<path d="M4016 3287 c3 -10 9 -15 12 -12 3 3 0 11 -7 18 -10 9 -11 8 -5 -6z"/>
<path d="M2634 3259 c-4 -8 -3 -9 4 -5 7 4 12 1 12 -8 0 -9 -3 -15 -7 -13 -5
1 -10 -2 -11 -8 -2 -5 -9 -17 -15 -25 -6 -8 1 -4 16 9 15 14 27 30 27 37 0 18
-17 27 -26 13z"/>
<path d="M3990 3250 c-9 -6 -10 -10 -3 -10 6 0 15 5 18 10 8 12 4 12 -15 0z"/>
<path d="M3880 3181 c-8 -3 -16 -14 -16 -23 -1 -13 2 -15 15 -9 9 5 20 9 24 9
16 0 18 9 5 19 -7 6 -20 8 -28 4z m24 -9 c3 -5 -1 -9 -9 -9 -8 0 -12 4 -9 9 3
4 7 8 9 8 2 0 6 -4 9 -8z"/>
<path d="M3970 3181 c0 -6 4 -13 10 -16 6 -3 7 1 4 9 -7 18 -14 21 -14 7z"/>
<path d="M3890 3131 c0 -6 4 -13 10 -16 6 -3 7 1 4 9 -7 18 -14 21 -14 7z"/>
<path d="M2543 3114 c0 -7 4 -11 8 -8 4 2 9 -2 12 -8 3 -7 5 -4 4 8 -1 22 -24
30 -24 8z"/>
<path d="M3830 3121 c0 -4 9 -12 20 -19 17 -10 21 -10 26 3 4 9 4 19 0 22 -3
4 -6 -1 -6 -11 0 -9 -5 -14 -10 -11 -6 4 -8 10 -6 14 3 4 -1 8 -9 8 -8 0 -15
-3 -15 -6z"/>
<path d="M3572 3069 c2 -9 -5 -14 -19 -14 -13 0 -23 -3 -23 -7 0 -21 1 -22 10
-8 8 12 10 12 10 1 0 -11 3 -11 15 -1 10 9 15 9 15 1 0 -10 -13 -15 -32 -12
-5 0 -8 -5 -8 -11 0 -9 -3 -8 -10 2 -5 8 -12 11 -17 7 -7 -8 13 -26 29 -27 12
0 68 51 68 63 0 5 -3 7 -7 4 -3 -4 -12 -2 -20 5 -11 9 -13 8 -11 -3z"/>
<path d="M3754 3045 c-9 -14 -21 -22 -27 -18 -5 3 -7 1 -3 -5 3 -6 2 -13 -4
-17 -6 -4 -8 -10 -5 -15 3 -4 -13 -23 -35 -40 -22 -17 -38 -35 -35 -40 3 -5
-1 -11 -7 -13 -8 -4 -7 -6 4 -6 9 -1 19 -7 22 -13 3 -7 3 -3 0 9 -4 18 -2 22
10 17 9 -3 16 -1 16 6 0 6 -4 9 -9 5 -5 -3 -12 -1 -16 5 -3 5 0 10 8 10 8 0
17 7 21 15 6 16 26 16 38 0 4 -6 8 -2 8 8 0 9 -6 17 -12 17 -7 0 2 14 20 31
17 16 32 35 32 40 0 6 6 7 13 3 8 -5 8 -2 -2 9 -17 22 -17 22 -37 -8z m17 -3
c-5 -9 -19 -26 -32 -37 -17 -15 -15 -10 7 17 32 41 40 48 25 20z"/>
<path d="M3776 3001 c-3 -4 4 -7 14 -6 27 2 33 10 10 12 -11 1 -22 -2 -24 -6z"/>
<path d="M3450 2981 c-11 -22 12 -51 25 -31 3 6 10 8 15 5 4 -3 10 1 13 9 3 8
-5 18 -19 24 -20 10 -25 8 -34 -7z m40 -6 c0 -2 -7 -8 -15 -15 -12 -10 -15
-10 -15 2 0 8 7 15 15 15 8 0 15 -1 15 -2z"/>
<path d="M2510 2961 c0 -6 4 -12 8 -15 5 -3 9 1 9 9 0 8 -4 15 -9 15 -4 0 -8
-4 -8 -9z"/>
<path d="M2415 2951 c-3 -5 -2 -12 3 -15 5 -3 9 1 9 9 0 17 -3 19 -12 6z"/>
<path d="M3414 2921 c-5 -3 -10 -13 -12 -21 -2 -8 -10 -23 -19 -32 -8 -9 -12
-21 -8 -27 9 -16 49 25 42 43 -4 9 -2 17 3 17 6 1 15 2 20 3 6 0 11 5 13 10 3
11 -27 16 -39 7z m-4 -55 c0 -2 -7 -7 -16 -10 -8 -3 -12 -2 -9 4 6 10 25 14
25 6z"/>
<path d="M3711 2907 c-13 -21 -12 -21 5 -5 10 10 16 20 13 22 -3 3 -11 -5 -18
-17z"/>
<path d="M2310 2860 c0 -4 7 -7 15 -6 23 3 26 12 5 13 -11 1 -20 -2 -20 -7z"/>
<path d="M2358 2843 c7 -3 16 -2 19 1 4 3 -2 6 -13 5 -11 0 -14 -3 -6 -6z"/>
<path d="M2287 2784 c-3 -3 -3 -12 -1 -19 3 -7 1 -16 -5 -20 -6 -3 -11 1 -11
9 0 9 -4 16 -9 16 -7 0 -8 -30 -2 -49 4 -12 39 34 38 50 -1 21 -1 21 -10 13z"/>
<path d="M3384 2781 c3 -4 -1 -16 -8 -27 -8 -10 -12 -24 -9 -31 3 -7 1 -13 -4
-13 -5 0 -9 9 -10 20 -1 11 2 20 8 20 5 0 9 4 9 8 0 5 -7 9 -15 9 -8 0 -12 -4
-9 -8 2 -4 0 -10 -6 -14 -6 -4 -7 -12 -1 -24 6 -9 8 -26 6 -37 -2 -10 -4 -21
-4 -24 -1 -3 -6 2 -11 10 -6 9 -10 10 -10 3 0 -17 17 -25 25 -13 5 8 11 7 21
-1 18 -15 31 15 15 35 -6 7 -7 16 -3 20 7 8 8 13 11 44 1 14 3 15 11 2 6 -9 5
-17 -2 -21 -12 -7 1 -16 20 -13 6 1 17 2 23 3 5 0 7 6 3 12 -4 8 -9 7 -15 -2
-5 -9 -10 -5 -14 13 -4 15 -13 29 -21 32 -8 3 -13 2 -10 -3z m-4 -108 c0 -13
-3 -13 -15 -3 -8 7 -12 16 -9 21 8 13 24 1 24 -18z"/>
<path d="M3536 2741 c-3 -4 4 -7 14 -6 27 2 33 10 10 12 -11 1 -22 -2 -24 -6z"/>
<path d="M2205 2719 c-4 -6 -5 -12 -2 -15 2 -3 7 2 10 11 7 17 1 20 -8 4z"/>
<path d="M3255 2709 c-4 -6 -5 -12 -2 -15 2 -3 7 2 10 11 7 17 1 20 -8 4z"/>
<path d="M3275 2701 c-6 -11 13 -26 22 -17 4 3 1 6 -6 6 -7 0 -9 5 -6 10 3 6
4 10 1 10 -3 0 -7 -4 -11 -9z"/>
<path d="M3435 2669 c-4 -6 -4 -13 -1 -16 3 -4 6 -1 6 5 0 7 5 12 11 12 5 0 7
-5 3 -12 -4 -7 -3 -8 5 -4 12 8 6 26 -9 26 -5 0 -12 -5 -15 -11z"/>
<path d="M2119 2628 c-1 -2 -2 -16 -3 -31 0 -16 -10 -35 -21 -43 -11 -8 -21
-24 -21 -34 -1 -21 11 -27 21 -10 3 6 1 10 -4 10 -6 0 -11 5 -11 11 0 5 5 7
10 4 13 -8 42 14 35 25 -3 5 -1 11 5 15 7 4 7 12 0 24 -5 10 -6 21 -3 25 3 3
3 6 0 6 -4 0 -7 -1 -8 -2z"/>
<path d="M3170 2619 c0 -5 5 -7 10 -4 6 3 10 8 10 11 0 2 -4 4 -10 4 -5 0 -10
-5 -10 -11z"/>
<path d="M2069 2563 c-13 -17 -13 -17 6 -3 11 8 22 16 24 17 2 2 0 3 -6 3 -6
0 -17 -8 -24 -17z"/>
<path d="M3017 2544 c6 -17 36 -19 31 -2 -2 6 -11 12 -20 14 -11 1 -15 -3 -11
-12z"/>
<path d="M3107 2539 c7 -7 15 -10 18 -7 3 3 -2 9 -12 12 -14 6 -15 5 -6 -5z"/>
<path d="M2953 2525 c0 -8 4 -12 9 -9 5 3 6 10 3 15 -9 13 -12 11 -12 -6z"/>
<path d="M2900 2520 c-9 -6 -10 -10 -3 -10 6 0 15 5 18 10 8 12 4 12 -15 0z"/>
<path d="M2820 2360 c0 -5 7 -7 15 -4 8 4 15 8 15 10 0 2 -7 4 -15 4 -8 0 -15
-4 -15 -10z"/>
<path d="M2757 2323 c-13 -16 -14 -20 -1 -37 8 -11 14 -15 14 -10 0 6 -6 16
-12 23 -11 11 -10 13 4 8 13 -4 15 -2 11 10 -4 11 -2 14 5 9 7 -4 12 -2 12 3
0 16 -15 13 -33 -6z"/>
<path d="M1810 2278 c0 -4 4 -8 9 -8 6 0 12 4 15 8 3 5 -1 9 -9 9 -8 0 -15 -4
-15 -9z"/>
<path d="M2735 2240 c3 -5 8 -10 11 -10 2 0 4 5 4 10 0 6 -5 10 -11 10 -5 0
-7 -4 -4 -10z"/>
<path d="M1735 2200 c-3 -5 -1 -10 4 -10 6 0 11 5 11 10 0 6 -2 10 -4 10 -3 0
-8 -4 -11 -10z"/>
<path d="M2670 2179 c0 -5 5 -7 10 -4 6 3 10 8 10 11 0 2 -4 4 -10 4 -5 0 -10
-5 -10 -11z"/>
<path d="M1680 2131 c0 -7 -5 -9 -12 -5 -7 5 -8 3 -3 -5 5 -9 10 -10 18 -2 6
6 8 14 4 18 -4 3 -7 1 -7 -6z"/>
<path d="M2621 2124 c0 -11 3 -14 6 -6 3 7 2 16 -1 19 -3 4 -6 -2 -5 -13z"/>
<path d="M1715 2090 c-3 -5 -1 -10 4 -10 6 0 11 5 11 10 0 6 -2 10 -4 10 -3 0
-8 -4 -11 -10z"/>
<path d="M2430 1960 c-6 -11 -8 -20 -5 -20 2 0 -3 -9 -12 -20 -13 -15 -20 -17
-32 -8 -12 9 -11 7 1 -7 17 -18 18 -18 38 6 15 16 23 20 26 12 3 -7 11 -13 17
-13 8 0 7 4 -1 12 -15 15 -16 32 -1 22 8 -4 8 0 0 15 -14 26 -18 26 -31 1z
m11 -13 c-10 -9 -11 -8 -5 6 3 10 9 15 12 12 3 -3 0 -11 -7 -18z"/>
<path d="M2393 1865 c0 -8 4 -12 9 -9 5 3 6 10 3 15 -9 13 -12 11 -12 -6z"/>
<path d="M1385 1820 c-3 -6 1 -7 9 -4 18 7 21 14 7 14 -6 0 -13 -4 -16 -10z"/>
<path d="M1399 1808 c-8 -28 -6 -45 5 -45 8 0 12 6 8 15 -3 10 -1 13 6 8 8 -5
10 -2 6 8 -5 13 -22 22 -25 14z"/>
<path d="M2336 1773 c-6 -14 -5 -15 5 -6 7 7 10 15 7 18 -3 3 -9 -2 -12 -12z"/>
<path d="M2255 1770 c-3 -5 -3 -10 1 -10 4 0 -2 -10 -14 -23 -12 -12 -18 -27
-14 -33 4 -6 13 -4 25 8 9 10 12 18 6 18 -5 0 -7 5 -4 10 4 6 10 8 15 5 4 -3
6 4 3 15 -6 23 -9 24 -18 10z"/>
<path d="M1346 1762 c-3 -5 1 -9 9 -9 8 0 12 4 9 9 -3 4 -7 8 -9 8 -2 0 -6 -4
-9 -8z"/>
<path d="M2289 1757 c6 -8 7 -18 3 -22 -4 -5 -1 -5 6 -1 10 6 10 11 1 22 -6 8
-14 14 -16 14 -3 0 0 -6 6 -13z"/>
<path d="M1296 1747 c3 -10 9 -15 12 -12 3 3 0 11 -7 18 -10 9 -11 8 -5 -6z"/>
<path d="M1320 1709 c-11 -6 -12 -9 -2 -9 7 0 10 -5 7 -10 -4 -6 -11 -8 -16
-5 -5 3 -6 -1 -3 -9 9 -22 17 -20 31 9 12 28 5 39 -17 24z"/>
<path d="M1280 1700 c-9 -6 -10 -10 -3 -10 6 0 15 5 18 10 8 12 4 12 -15 0z"/>
<path d="M2256 1702 c-2 -4 4 -8 14 -8 10 0 16 4 14 8 -3 4 -9 8 -14 8 -5 0
-11 -4 -14 -8z"/>
<path d="M1186 1578 c3 -4 11 -5 19 -1 21 7 19 12 -4 10 -11 0 -18 -5 -15 -9z"/>
<path d="M1149 1563 c-13 -16 -12 -17 4 -4 9 7 17 15 17 17 0 8 -8 3 -21 -13z"/>
<path d="M1200 1560 c-8 -5 -18 -6 -22 -4 -5 3 -8 2 -7 -3 4 -22 -2 -43 -11
-38 -5 3 -10 1 -10 -5 0 -6 -5 -8 -12 -4 -9 5 -9 2 1 -9 7 -9 19 -17 25 -17 6
0 4 5 -4 10 -10 7 -11 10 -2 10 7 0 18 11 24 25 6 14 15 25 20 25 5 0 6 -6 2
-12 -5 -10 -4 -10 6 -1 17 15 9 35 -10 23z"/>
<path d="M2113 1513 c0 -9 4 -10 14 -2 7 6 13 12 13 14 0 1 -6 2 -13 2 -8 0
-14 -6 -14 -14z"/>
<path d="M1078 1445 c-6 -13 -15 -22 -21 -18 -6 4 -7 1 -2 -7 6 -10 11 -9 22
5 7 11 13 23 13 28 0 4 5 5 12 1 7 -4 8 -3 4 4 -10 17 -15 15 -28 -13z"/>
<path d="M1112 1361 c-24 -20 -31 -41 -7 -21 8 7 22 9 31 6 13 -5 14 -4 6 7
-7 8 -9 17 -5 20 15 15 -6 6 -25 -12z"/>
<path d="M1074 1315 c1 -8 6 -18 11 -22 4 -4 5 -3 2 4 -4 6 -2 13 5 15 8 3 6
6 -4 10 -10 4 -15 2 -14 -7z"/>
<path d="M1040 1295 c-7 -9 -11 -17 -9 -20 3 -2 10 5 17 15 14 24 10 26 -8 5z"/>
<path d="M1880 1279 c0 -5 5 -7 10 -4 6 3 10 8 10 11 0 2 -4 4 -10 4 -5 0 -10
-5 -10 -11z"/>
<path d="M951 1227 c-13 -21 -12 -21 5 -5 10 10 16 20 13 22 -3 3 -11 -5 -18
-17z"/>
<path d="M1833 1185 c0 -8 4 -12 9 -9 5 3 6 10 3 15 -9 13 -12 11 -12 -6z"/>
<path d="M1795 1160 c-3 -5 -1 -10 4 -10 6 0 11 5 11 10 0 6 -2 10 -4 10 -3 0
-8 -4 -11 -10z"/>
<path d="M1709 1123 c-8 -9 -8 -13 0 -13 6 0 11 5 11 11 0 5 4 8 9 4 5 -3 12
-2 15 3 9 14 -23 10 -35 -5z"/>
<path d="M940 1060 c-9 -6 -10 -10 -3 -10 6 0 15 5 18 10 8 12 4 12 -15 0z"/>
<path d="M1623 1046 c-10 -12 -14 -18 -9 -14 5 4 15 3 22 -3 10 -8 11 -5 7 13
-4 22 -4 22 11 4 15 -18 15 -18 13 1 -1 26 -22 25 -44 -1z"/>
<path d="M1526 923 c-6 -14 -5 -15 5 -6 7 7 10 15 7 18 -3 3 -9 -2 -12 -12z"/>
<path d="M1440 895 c-7 -8 -16 -12 -21 -9 -5 3 -9 0 -9 -5 0 -16 16 -13 30 4
7 8 17 12 23 8 6 -3 7 -1 3 5 -9 15 -11 15 -26 -3z"/>
<path d="M1390 851 c0 -6 4 -12 8 -15 5 -3 9 1 9 9 0 8 -4 15 -9 15 -4 0 -8
-4 -8 -9z"/>
<path d="M1206 785 c-3 -8 2 -21 10 -30 18 -17 28 -20 19 -4 -4 6 0 9 10 7 10
-2 20 3 22 10 3 8 -4 11 -19 10 -14 -2 -22 2 -20 10 3 17 -15 15 -22 -3z"/>
<path d="M1277 755 c-4 -8 -3 -16 1 -19 4 -3 9 4 9 15 2 23 -3 25 -10 4z"/>
<path d="M1150 726 c0 -2 7 -7 16 -10 8 -3 12 -2 9 4 -6 10 -25 14 -25 6z"/>
<path d="M910 680 c0 -5 5 -10 10 -10 6 0 10 5 10 10 0 6 -4 10 -10 10 -5 0
-10 -4 -10 -10z"/>
</g>
</svg>
